<svg xmlns="http://www.w3.org/2000/svg" xmlns:xlink="http://www.w3.org/1999/xlink" width="450" height="450" viewBox="0 0 450 450">
  <defs>
    <clipPath id="clip-_8">
      <rect width="450" height="450"/>
    </clipPath>
  </defs>
  <g id="_8" data-name="8" clip-path="url(#clip-_8)">
    <rect width="450" height="450" fill="rgba(255,255,255,0)"/>
    <g id="Group_35725" data-name="Group 35725" transform="translate(-0.117)">
      <rect id="Rectangle_14" data-name="Rectangle 14" width="450" height="450" transform="translate(0.117)" fill="red" opacity="0"/>
      <g id="Group_132" data-name="Group 132" transform="translate(41.595 122.863)">
        <path id="Path_77" data-name="Path 77" d="M-22009.8-22729.391s-138.307-6.1-137.975-33.273,39.2-25.357,39.2-25.357-3.85-25.01,11.945-37.275,34.51-9.445,34.51-9.445-3.787-30.193,25.717-51.238,53.025-8.643,53.025-8.643,17.133-45.941,68.1-37.244,49.246,52.529,49.246,52.529,40.635,3.047,54.654,35.822,2.262,55.494,2.262,55.494,29.881,7.773,28.328,23.561-20.045,22.59-72.029,30.5S-22009.8-22729.391-22009.8-22729.391Z" transform="translate(22147.777 22932.963)" fill="#ccc"/>
        <path id="Path_74" data-name="Path 74" d="M-22018.928-22750.85s-135.123-5.975-135.422-25.369,39.391-15.5,39.391-15.5-6.395-24.75,6.617-37.9c13.027-13.164,38.174-8.412,38.174-8.412s-4.354-33.67,23.518-52.867,50.932-3.793,50.932-3.793,15.529-47.277,62.947-40.129,40.648,50.084,40.648,50.084,41.789.891,56.012,30.652-1.246,59.531-1.246,59.531,33.576,7.693,31.137,18.332-26.734,15.021-72.2,21.941S-22018.928-22750.85-22018.928-22750.85Z" transform="translate(22164.035 22945.158)" fill="#fff"/>
        <path id="Path_89" data-name="Path 89" d="M-22018.928-22782.834s-135.123-5.98-135.422-25.371,39.391-15.5,39.391-15.5-6.395-24.752,6.617-37.91c13.027-13.154,38.174-8.4,38.174-8.4s13.256,62.92,75.152,53.57,70.406-87.855,70.406-87.855a167.7,167.7,0,0,1,14.4,16.518c13.268,17.268,29.008,45.451,7.182,61.246-33.525,24.25,65.67,0,65.67,0s33.576,7.7,31.137,18.332-26.734,15.023-72.2,21.941S-22018.928-22782.834-22018.928-22782.834Z" transform="translate(22164.035 22977.146)" fill="#e2e2e2"/>
      </g>
    </g>
  </g>
</svg>
