<svg xmlns="http://www.w3.org/2000/svg" xmlns:xlink="http://www.w3.org/1999/xlink" width="450" height="450" viewBox="0 0 450 450">
  <defs>
    <clipPath id="clip-_16">
      <rect width="450" height="450"/>
    </clipPath>
  </defs>
  <g id="_16" data-name="16" clip-path="url(#clip-_16)">
    <rect width="450" height="450" fill="rgba(255,255,255,0)"/>
    <g id="Group_35763" data-name="Group 35763" transform="translate(0.343)">
      <rect id="Rectangle_12" data-name="Rectangle 12" width="450" height="450" transform="translate(-0.342 0)" fill="red" opacity="0"/>
      <g id="Group_35436" data-name="Group 35436" transform="translate(40.89 53.899)">
        <g id="Group_122" data-name="Group 122">
          <path id="Path_77" data-name="Path 77" d="M-22009.793-22729.35s-138.316-6.111-137.979-33.285c.322-27.174,39.2-25.365,39.2-25.365s-3.859-25.01,11.941-37.277,34.51-9.443,34.51-9.443-3.785-30.205,25.725-51.252,53.021-8.645,53.021-8.645,17.148-45.949,68.119-37.25,49.256,52.533,49.256,52.533,40.629,3.055,54.654,35.832,2.264,55.5,2.264,55.5,29.883,7.781,28.33,23.572-20.055,22.594-72.037,30.508S-22009.793-22729.35-22009.793-22729.35Z" transform="translate(22147.771 22932.963)" fill="#ccc"/>
          <path id="Path_74" data-name="Path 74" d="M-22018.914-22750.809s-135.131-5.971-135.432-25.381c-.3-19.387,39.4-15.5,39.4-15.5s-6.4-24.754,6.615-37.91,38.176-8.41,38.176-8.41-4.354-33.676,23.523-52.877,50.939-3.791,50.939-3.791,15.521-47.293,62.947-40.141,40.658,50.1,40.658,50.1,41.793.885,56.016,30.656-1.25,59.537-1.25,59.537,33.58,7.7,31.143,18.336-26.74,15.031-72.209,21.951S-22018.914-22750.809-22018.914-22750.809Z" transform="translate(22164.031 22945.156)" fill="#d3d3d3"/>
          <path id="Path_89" data-name="Path 89" d="M-22018.914-22782.807s-135.131-5.98-135.432-25.385,39.4-15.5,39.4-15.5-6.4-24.752,6.615-37.908,38.176-8.41,38.176-8.41,13.26,62.932,75.16,53.578,70.42-87.867,70.42-87.867a168.067,168.067,0,0,1,14.395,16.514c13.271,17.271,29.01,45.461,7.182,61.266-33.521,24.248,65.678,0,65.678,0s33.58,7.7,31.143,18.326-26.74,15.033-72.209,21.951S-22018.914-22782.807-22018.914-22782.807Z" transform="translate(22164.031 22977.156)" fill="#bababa"/>
        </g>
        <g id="Group_35435" data-name="Group 35435" transform="translate(80.823 221.681)">
          <g id="Group_35433" data-name="Group 35433" transform="translate(144.674 0)">
            <path id="Union_41" data-name="Union 41" d="M33.734,79.367a2,2,0,0,1-2-2V68.593l-6.16,4.313a2,2,0,0,1-2.786-.491l-1.276-1.823A2,2,0,0,1,22,67.807l9.732-6.815V45.076L19.16,52.045l-1.241,11.81a2,2,0,0,1-2.2,1.78L13.508,65.4a2,2,0,0,1-1.78-2.2l.786-7.475L4.048,60.422a2,2,0,0,1-2.719-.779L.251,57.7a2,2,0,0,1,.779-2.719l8.291-4.6-6.44-3.141a2,2,0,0,1-.921-2.675l.976-2a2,2,0,0,1,2.674-.921L15.967,46.7l12.8-7.094L16.3,32.4,5.53,37.426a2,2,0,0,1-2.659-.968l-.94-2.016A2,2,0,0,1,2.9,31.784l6.816-3.178L1.327,23.763A2,2,0,0,1,.594,21.03L1.706,19.1a2,2,0,0,1,2.732-.732l8.209,4.74-.624-7.134a2,2,0,0,1,1.818-2.166l2.216-.194a2,2,0,0,1,2.167,1.818l1,11.477,12.5,7.219V19.283L22,12.47a2,2,0,0,1-.491-2.785l1.276-1.823a2,2,0,0,1,2.785-.491l6.159,4.312V2a2,2,0,0,1,2-2h2.225a2,2,0,0,1,2,2v9.478l5.863-4.105a2,2,0,0,1,2.786.491l1.275,1.823a2,2,0,0,1-.491,2.785l-9.434,6.605V34.508L52.8,26.278l1.2-11.457a2,2,0,0,1,2.2-1.779l2.212.232a2,2,0,0,1,1.78,2.2L59.449,22.6l7.5-4.157a2,2,0,0,1,2.718.78l1.079,1.946a2,2,0,0,1-.779,2.719l-7.675,4.254,6.757,3.3a2,2,0,0,1,.921,2.675l-.976,2a2,2,0,0,1-2.674.921L55.644,31.822,41.405,39.714,55.7,47.97,66.148,43.1a2,2,0,0,1,2.658.967l.94,2.015a2,2,0,0,1-.967,2.658l-6.494,3.028,7.424,4.286a2,2,0,0,1,.733,2.732l-1.112,1.927a2,2,0,0,1-2.732.732L59,57.061l.656,7.49a2,2,0,0,1-1.819,2.166l-2.217.194a2,2,0,0,1-2.166-1.818L52.419,53.261,37.958,44.912V61.2L47.4,67.806a2,2,0,0,1,.491,2.785l-1.275,1.822a2,2,0,0,1-2.785.491L37.958,68.8v8.571a2,2,0,0,1-2,2Z" transform="translate(1.36 1.758)" fill="#fff"/>
            <path id="Union_41-2" data-name="Union 41" d="M35.205,80.125a3.113,3.113,0,0,0,3.112-3.112v-7.46l4.957,3.471a3.112,3.112,0,1,0,3.569-5.1l-8.526-5.97V45.67l14.461,8.349.938,10.723a3.112,3.112,0,1,0,6.2-.543l-.558-6.381,6.632,3.829A3.112,3.112,0,0,0,69.1,56.257l-6.461-3.73,5.486-2.558a3.112,3.112,0,0,0-2.63-5.642l-9.437,4.4-14.3-8.255L56,32.58,65.678,37.3a3.113,3.113,0,0,0,2.728-5.6L62.651,28.9l6.7-3.714a3.113,3.113,0,1,0-3.019-5.444l-6.525,3.617.633-6.017a3.112,3.112,0,1,0-6.19-.65L53.163,27.037,38.317,35.266V19.834l8.522-5.968a3.112,3.112,0,0,0-3.569-5.1l-4.952,3.467V3.87a3.112,3.112,0,1,0-6.224,0v8.572L26.845,8.767a3.113,3.113,0,0,0-3.571,5.1l8.819,6.175V34.888l-12.505-7.22L18.681,17.3a3.112,3.112,0,0,0-6.2.543l.527,6.026L5.762,19.686a3.113,3.113,0,1,0-3.114,5.391l7.426,4.287L4.265,32.071A3.113,3.113,0,0,0,6.9,37.714l9.758-4.551,12.469,7.2-12.8,7.094L6.969,42.892A3.112,3.112,0,1,0,4.24,48.487L9.68,51.14,2.363,55.2A3.112,3.112,0,1,0,5.381,60.64l7.492-4.153-.67,6.37a3.113,3.113,0,0,0,6.191.65L19.52,52.8l12.573-6.969V61.751l-8.821,6.175a3.113,3.113,0,0,0,3.571,5.1l5.25-3.676v7.662a3.113,3.113,0,0,0,3.112,3.112m0,1.758a4.876,4.876,0,0,1-4.87-4.87V72.728l-2.483,1.739a4.871,4.871,0,0,1-5.589-7.98l8.072-5.65V48.818L21.172,53.9l-1.03,9.794A4.86,4.86,0,0,1,15.3,68.052a4.933,4.933,0,0,1-.511-.027,4.879,4.879,0,0,1-4.336-5.352l.317-3.012L6.233,62.177a4.87,4.87,0,1,1-4.722-8.52L5.874,51.24l-2.4-1.173a4.871,4.871,0,0,1,2.137-9.249,4.826,4.826,0,0,1,2.134.495l8.534,4.162,9.279-5.144-8.986-5.188L7.639,39.307a4.834,4.834,0,0,1-2.056.457A4.889,4.889,0,0,1,1.167,36.95a4.871,4.871,0,0,1,2.355-6.472L6.27,29.2l-4.5-2.6A4.871,4.871,0,0,1,6.64,18.163l4.321,2.495L10.729,18a4.87,4.87,0,0,1,9.7-.85l.827,9.457,9.076,5.24V20.957l-8.07-5.65a4.871,4.871,0,1,1,5.588-7.98l2.482,1.738V3.87a4.87,4.87,0,1,1,9.74,0V8.859l2.186-1.531a4.87,4.87,0,1,1,5.586,7.978l-7.772,5.443V32.281l11.435-6.339L52.5,16.5a4.856,4.856,0,0,1,4.84-4.362,4.932,4.932,0,0,1,.511.027,4.879,4.879,0,0,1,4.336,5.352l-.28,2.659L65.481,18.2a4.871,4.871,0,1,1,4.724,8.519L66.457,28.8l2.72,1.327a4.87,4.87,0,0,1,2.243,6.514,4.9,4.9,0,0,1-4.38,2.735,4.823,4.823,0,0,1-2.132-.493l-8.853-4.318L45.335,40.5l10.814,6.244,8.608-4.014a4.828,4.828,0,0,1,2.055-.457,4.889,4.889,0,0,1,4.416,2.814,4.869,4.869,0,0,1-2.354,6.471l-2.426,1.131,3.536,2.041a4.87,4.87,0,1,1-4.87,8.436L61.4,61.029l.264,3.017a4.87,4.87,0,1,1-9.7.848l-.858-9.81L40.075,48.715V61.041l7.777,5.445a4.87,4.87,0,1,1-5.588,7.977L40.075,72.93v4.083A4.876,4.876,0,0,1,35.205,81.883Z" transform="translate(1.001 1)" fill="#ccc"/>
          </g>
          <g id="Group_35432" data-name="Group 35432" transform="translate(64.634 70.698)">
            <path id="Union_42" data-name="Union 42" d="M27.777,63.8a2,2,0,0,1-2-2V55.143L21.458,58.1a2.6,2.6,0,0,1-3.566-.614h0A2.466,2.466,0,0,1,18.52,54l7.257-4.965v-12.8l-10.344,5.6-.925,8.6a2.548,2.548,0,0,1-2.814,2.228,2.518,2.518,0,0,1-2.279-2.75l.551-5.12L3.8,48.141a2.593,2.593,0,0,1-3.481-.976,2.473,2.473,0,0,1,1-3.4L7.339,40.5,2.864,38.37a2.476,2.476,0,0,1-1.179-3.345,2.588,2.588,0,0,1,3.424-1.152l7.7,3.669,10.527-5.7L13.076,26.051,5.049,29.709a2.587,2.587,0,0,1-3.4-1.21h0a2.478,2.478,0,0,1,1.238-3.325L7.663,23,1.554,19.551a2.472,2.472,0,0,1-.937-3.418,2.594,2.594,0,0,1,3.5-.916l5.961,3.363-.434-4.844a2.561,2.561,0,0,1,5.1-.436l.745,8.335,10.288,5.8V15.5l-7.255-4.964a2.466,2.466,0,0,1-.628-3.485,2.6,2.6,0,0,1,3.566-.615l4.317,2.954V2a2,2,0,0,1,2-2H28.9a2,2,0,0,1,2,2V9.227L34.971,6.44a2.6,2.6,0,0,1,3.566.615,2.467,2.467,0,0,1-.629,3.485l-7.01,4.8V27.741L43.11,21.126l.9-8.321a2.546,2.546,0,0,1,2.813-2.227A2.516,2.516,0,0,1,49.1,13.327l-.52,4.837,5.368-2.908a2.593,2.593,0,0,1,3.481.976,2.473,2.473,0,0,1-1,3.4L50.915,22.62l4.736,2.258a2.476,2.476,0,0,1,1.179,3.345h0a2.588,2.588,0,0,1-3.424,1.152l-7.959-3.794L33.733,31.927,45.5,38.564l7.762-3.537a2.585,2.585,0,0,1,3.4,1.21,2.478,2.478,0,0,1-1.238,3.325l-4.513,2.057,5.315,3a2.471,2.471,0,0,1,.937,3.418,2.593,2.593,0,0,1-3.5.915l-5.455-3.078L48.667,51a2.52,2.52,0,0,1-2.327,2.711h0a2.545,2.545,0,0,1-2.774-2.275l-.772-8.621L30.9,36.106V49.2L37.912,54a2.465,2.465,0,0,1,.628,3.484,2.6,2.6,0,0,1-3.565.615L30.9,55.307v6.5a2,2,0,0,1-2,2Z" transform="translate(1.76 1.758)" fill="#fff"/>
            <path id="Union_42-2" data-name="Union 42" d="M29.1,64.562A2.559,2.559,0,0,0,31.656,62V56.065l4.077,2.79a2.6,2.6,0,0,0,3.566-.615,2.467,2.467,0,0,0-.63-3.484l-7.014-4.8V36.863l11.9,6.712.772,8.622a2.561,2.561,0,0,0,5.1-.437l-.46-5.131,5.456,3.079a2.591,2.591,0,0,0,3.5-.916,2.471,2.471,0,0,0-.937-3.418l-5.315-3,4.513-2.056A2.477,2.477,0,0,0,57.419,37a2.585,2.585,0,0,0-3.4-1.21l-7.763,3.537L34.492,32.685,46.2,26.34l7.96,3.793a2.588,2.588,0,0,0,3.424-1.152,2.478,2.478,0,0,0-1.179-3.346l-4.736-2.257,5.513-2.986a2.473,2.473,0,0,0,1-3.4,2.591,2.591,0,0,0-3.481-.975l-5.368,2.908.52-4.838a2.519,2.519,0,0,0-2.278-2.75,2.548,2.548,0,0,0-2.815,2.228l-.895,8.322L31.656,28.5V16.094l7.011-4.8a2.468,2.468,0,0,0,.63-3.486A2.6,2.6,0,0,0,35.73,7.2L31.656,9.985V3.318a2.56,2.56,0,1,0-5.12,0v6.833L22.218,7.2a2.6,2.6,0,0,0-3.566.615,2.464,2.464,0,0,0,.63,3.484l7.254,4.965V28.2l-10.288-5.8L15.5,14.056a2.561,2.561,0,0,0-5.1.437l.434,4.844L4.874,15.974a2.6,2.6,0,0,0-3.5.916,2.471,2.471,0,0,0,.938,3.418l6.108,3.446L3.643,25.932a2.477,2.477,0,0,0-1.237,3.324,2.584,2.584,0,0,0,3.4,1.21l8.028-3.658L24.094,32.6,13.565,38.3l-7.7-3.67a2.587,2.587,0,0,0-3.424,1.152,2.478,2.478,0,0,0,1.179,3.346L8.1,41.261l-6.02,3.261a2.473,2.473,0,0,0-1,3.4,2.591,2.591,0,0,0,3.481.975l6.163-3.338-.551,5.12a2.518,2.518,0,0,0,2.28,2.75A2.543,2.543,0,0,0,15.266,51.2l.925-8.605,10.345-5.6v12.8l-7.258,4.966a2.465,2.465,0,0,0-.628,3.484,2.6,2.6,0,0,0,3.566.615L26.536,55.9V62a2.559,2.559,0,0,0,2.56,2.56m0,1.758A4.323,4.323,0,0,1,24.778,62V59.234l-1.569,1.073a4.357,4.357,0,0,1-5.988-1.042,4.223,4.223,0,0,1,1.064-5.959l6.493-4.443V39.946L17.841,43.7l-.827,7.687a4.284,4.284,0,0,1-4.288,3.81,4.422,4.422,0,0,1-.454-.023A4.3,4.3,0,0,1,9.347,53.6a4.2,4.2,0,0,1-.922-3.109L8.618,48.7,5.4,50.444A4.352,4.352,0,0,1-.45,48.79a4.184,4.184,0,0,1-.386-3.242,4.238,4.238,0,0,1,2.077-2.573l2.98-1.614-1.356-.646A4.25,4.25,0,0,1,.656,38.248,4.18,4.18,0,0,1,.871,35a4.35,4.35,0,0,1,5.753-1.954l6.89,3.285,6.947-3.763-6.71-3.786L6.537,32.067A4.348,4.348,0,0,1,.818,30.012a4.177,4.177,0,0,1-.157-3.251,4.249,4.249,0,0,1,2.253-2.428l1.635-.745-3.1-1.749A4.235,4.235,0,0,1-.581,19.231,4.182,4.182,0,0,1-.138,16a4.357,4.357,0,0,1,5.875-1.554l3.048,1.72L8.65,14.65a4.2,4.2,0,0,1,.975-3.091,4.305,4.305,0,0,1,2.954-1.528c.125-.011.251-.016.375-.016a4.271,4.271,0,0,1,4.3,3.884l.664,7.415,6.861,3.871v-8l-6.489-4.441a4.222,4.222,0,0,1-1.065-5.96,4.357,4.357,0,0,1,5.988-1.041l1.567,1.072v-3.5a4.318,4.318,0,0,1,8.636,0V6.652l1.323-.906a4.359,4.359,0,0,1,5.987,1.04,4.226,4.226,0,0,1-1.065,5.961l-6.246,4.273v8.527l8.8-4.769.8-7.4a4.29,4.29,0,0,1,4.293-3.812,4.428,4.428,0,0,1,.449.023,4.307,4.307,0,0,1,2.927,1.58,4.2,4.2,0,0,1,.92,3.106l-.162,1.511,2.425-1.314a4.352,4.352,0,0,1,5.848,1.654,4.184,4.184,0,0,1,.386,3.242,4.238,4.238,0,0,1-2.077,2.573l-2.473,1.34,1.616.77a4.25,4.25,0,0,1,2.211,2.467,4.18,4.18,0,0,1-.215,3.251,4.35,4.35,0,0,1-5.754,1.953l-7.152-3.408-8.131,4.4,8.214,4.635,6.949-3.166a4.348,4.348,0,0,1,5.717,2.053,4.176,4.176,0,0,1,.158,3.252,4.251,4.251,0,0,1-2.255,2.429l-1.368.623,2.305,1.3a4.238,4.238,0,0,1,2.031,2.611,4.181,4.181,0,0,1-.445,3.233,4.352,4.352,0,0,1-5.874,1.552L51.016,49.8l.161,1.8a4.2,4.2,0,0,1-.975,3.091,4.305,4.305,0,0,1-2.954,1.528c-.124.011-.252.016-.378.016a4.339,4.339,0,0,1-2.892-1.1,4.222,4.222,0,0,1-1.4-2.787l-.69-7.7-8.47-4.779v9.155L39.663,53.3a4.225,4.225,0,0,1,1.066,5.958,4.357,4.357,0,0,1-5.989,1.043L33.414,59.4V62A4.323,4.323,0,0,1,29.1,66.32Z" transform="translate(1.001 1)" fill="#ccc"/>
          </g>
          <g id="Group_35434" data-name="Group 35434" transform="translate(0 7.781)">
            <path id="Union_42-3" data-name="Union 42" d="M27.777,63.8a2,2,0,0,1-2-2V55.143L21.458,58.1a2.6,2.6,0,0,1-3.566-.614h0A2.466,2.466,0,0,1,18.52,54l7.257-4.965v-12.8l-10.344,5.6-.925,8.6a2.548,2.548,0,0,1-2.814,2.228,2.518,2.518,0,0,1-2.279-2.75l.551-5.12L3.8,48.141a2.593,2.593,0,0,1-3.481-.976,2.473,2.473,0,0,1,1-3.4L7.339,40.5,2.864,38.37a2.476,2.476,0,0,1-1.179-3.345,2.588,2.588,0,0,1,3.424-1.152l7.7,3.669,10.527-5.7L13.076,26.051,5.049,29.709a2.587,2.587,0,0,1-3.4-1.21h0a2.478,2.478,0,0,1,1.238-3.325L7.663,23,1.554,19.551a2.472,2.472,0,0,1-.937-3.418,2.594,2.594,0,0,1,3.5-.916l5.961,3.363-.434-4.844a2.561,2.561,0,0,1,5.1-.436l.745,8.335,10.288,5.8V15.5l-7.255-4.964a2.466,2.466,0,0,1-.628-3.485,2.6,2.6,0,0,1,3.566-.615l4.317,2.954V2a2,2,0,0,1,2-2H28.9a2,2,0,0,1,2,2V9.227L34.971,6.44a2.6,2.6,0,0,1,3.566.615,2.467,2.467,0,0,1-.629,3.485l-7.01,4.8V27.741L43.11,21.126l.9-8.321a2.546,2.546,0,0,1,2.813-2.227A2.516,2.516,0,0,1,49.1,13.327l-.52,4.837,5.368-2.908a2.593,2.593,0,0,1,3.481.976,2.473,2.473,0,0,1-1,3.4L50.915,22.62l4.736,2.258a2.476,2.476,0,0,1,1.179,3.345h0a2.588,2.588,0,0,1-3.424,1.152l-7.959-3.794L33.733,31.927,45.5,38.564l7.762-3.537a2.585,2.585,0,0,1,3.4,1.21,2.478,2.478,0,0,1-1.238,3.325l-4.513,2.057,5.315,3a2.471,2.471,0,0,1,.937,3.418,2.593,2.593,0,0,1-3.5.915l-5.455-3.078L48.667,51a2.52,2.52,0,0,1-2.327,2.711h0a2.545,2.545,0,0,1-2.774-2.275l-.772-8.621L30.9,36.106V49.2L37.912,54a2.465,2.465,0,0,1,.628,3.484,2.6,2.6,0,0,1-3.565.615L30.9,55.307v6.5a2,2,0,0,1-2,2Z" transform="translate(1.76 1.758)" fill="#fff"/>
            <path id="Union_42-4" data-name="Union 42" d="M29.1,64.562A2.559,2.559,0,0,0,31.656,62V56.065l4.077,2.79a2.6,2.6,0,0,0,3.566-.615,2.467,2.467,0,0,0-.63-3.484l-7.014-4.8V36.863l11.9,6.712.772,8.622a2.561,2.561,0,0,0,5.1-.437l-.46-5.131,5.456,3.079a2.591,2.591,0,0,0,3.5-.916,2.471,2.471,0,0,0-.937-3.418l-5.315-3,4.513-2.056A2.477,2.477,0,0,0,57.419,37a2.585,2.585,0,0,0-3.4-1.21l-7.763,3.537L34.492,32.685,46.2,26.34l7.96,3.793a2.588,2.588,0,0,0,3.424-1.152,2.478,2.478,0,0,0-1.179-3.346l-4.736-2.257,5.513-2.986a2.473,2.473,0,0,0,1-3.4,2.591,2.591,0,0,0-3.481-.975l-5.368,2.908.52-4.838a2.519,2.519,0,0,0-2.278-2.75,2.548,2.548,0,0,0-2.815,2.228l-.895,8.322L31.656,28.5V16.094l7.011-4.8a2.468,2.468,0,0,0,.63-3.486A2.6,2.6,0,0,0,35.73,7.2L31.656,9.985V3.318a2.56,2.56,0,1,0-5.12,0v6.833L22.218,7.2a2.6,2.6,0,0,0-3.566.615,2.464,2.464,0,0,0,.63,3.484l7.254,4.965V28.2l-10.288-5.8L15.5,14.056a2.561,2.561,0,0,0-5.1.437l.434,4.844L4.874,15.974a2.6,2.6,0,0,0-3.5.916,2.471,2.471,0,0,0,.938,3.418l6.108,3.446L3.643,25.932a2.477,2.477,0,0,0-1.237,3.324,2.584,2.584,0,0,0,3.4,1.21l8.028-3.658L24.094,32.6,13.565,38.3l-7.7-3.67a2.587,2.587,0,0,0-3.424,1.152,2.478,2.478,0,0,0,1.179,3.346L8.1,41.261l-6.02,3.261a2.473,2.473,0,0,0-1,3.4,2.591,2.591,0,0,0,3.481.975l6.163-3.338-.551,5.12a2.518,2.518,0,0,0,2.28,2.75A2.543,2.543,0,0,0,15.266,51.2l.925-8.605,10.345-5.6v12.8l-7.258,4.966a2.465,2.465,0,0,0-.628,3.484,2.6,2.6,0,0,0,3.566.615L26.536,55.9V62a2.559,2.559,0,0,0,2.56,2.56m0,1.758A4.323,4.323,0,0,1,24.778,62V59.234l-1.569,1.073a4.357,4.357,0,0,1-5.988-1.042,4.223,4.223,0,0,1,1.064-5.959l6.493-4.443V39.946L17.841,43.7l-.827,7.687a4.284,4.284,0,0,1-4.288,3.81,4.422,4.422,0,0,1-.454-.023A4.3,4.3,0,0,1,9.347,53.6a4.2,4.2,0,0,1-.922-3.109L8.618,48.7,5.4,50.444A4.352,4.352,0,0,1-.45,48.79a4.184,4.184,0,0,1-.386-3.242,4.238,4.238,0,0,1,2.077-2.573l2.98-1.614-1.356-.646A4.25,4.25,0,0,1,.656,38.248,4.18,4.18,0,0,1,.871,35a4.35,4.35,0,0,1,5.753-1.954l6.89,3.285,6.947-3.763-6.71-3.786L6.537,32.067A4.348,4.348,0,0,1,.818,30.012a4.177,4.177,0,0,1-.157-3.251,4.249,4.249,0,0,1,2.253-2.428l1.635-.745-3.1-1.749A4.235,4.235,0,0,1-.581,19.231,4.182,4.182,0,0,1-.138,16a4.357,4.357,0,0,1,5.875-1.554l3.048,1.72L8.65,14.65a4.2,4.2,0,0,1,.975-3.091,4.305,4.305,0,0,1,2.954-1.528c.125-.011.251-.016.375-.016a4.271,4.271,0,0,1,4.3,3.884l.664,7.415,6.861,3.871v-8l-6.489-4.441a4.222,4.222,0,0,1-1.065-5.96,4.357,4.357,0,0,1,5.988-1.041l1.567,1.072v-3.5a4.318,4.318,0,0,1,8.636,0V6.652l1.323-.906a4.359,4.359,0,0,1,5.987,1.04,4.226,4.226,0,0,1-1.065,5.961l-6.246,4.273v8.527l8.8-4.769.8-7.4a4.29,4.29,0,0,1,4.293-3.812,4.428,4.428,0,0,1,.449.023,4.307,4.307,0,0,1,2.927,1.58,4.2,4.2,0,0,1,.92,3.106l-.162,1.511,2.425-1.314a4.352,4.352,0,0,1,5.848,1.654,4.184,4.184,0,0,1,.386,3.242,4.238,4.238,0,0,1-2.077,2.573l-2.473,1.34,1.616.77a4.25,4.25,0,0,1,2.211,2.467,4.18,4.18,0,0,1-.215,3.251,4.35,4.35,0,0,1-5.754,1.953l-7.152-3.408-8.131,4.4,8.214,4.635,6.949-3.166a4.348,4.348,0,0,1,5.717,2.053,4.176,4.176,0,0,1,.158,3.252,4.251,4.251,0,0,1-2.255,2.429l-1.368.623,2.305,1.3a4.238,4.238,0,0,1,2.031,2.611,4.181,4.181,0,0,1-.445,3.233,4.352,4.352,0,0,1-5.874,1.552L51.016,49.8l.161,1.8a4.2,4.2,0,0,1-.975,3.091,4.305,4.305,0,0,1-2.954,1.528c-.124.011-.252.016-.378.016a4.339,4.339,0,0,1-2.892-1.1,4.222,4.222,0,0,1-1.4-2.787l-.69-7.7-8.47-4.779v9.155L39.663,53.3a4.225,4.225,0,0,1,1.066,5.958,4.357,4.357,0,0,1-5.989,1.043L33.414,59.4V62A4.323,4.323,0,0,1,29.1,66.32Z" transform="translate(1.001 1)" fill="#ccc"/>
          </g>
        </g>
      </g>
    </g>
  </g>
</svg>
