<svg xmlns="http://www.w3.org/2000/svg" xmlns:xlink="http://www.w3.org/1999/xlink" width="450" height="450" viewBox="0 0 450 450">
  <defs>
    <clipPath id="clip-_15">
      <rect width="450" height="450"/>
    </clipPath>
  </defs>
  <g id="_15" data-name="15" clip-path="url(#clip-_15)">
    <rect width="450" height="450" fill="rgba(255,255,255,0)"/>
    <g id="Group_35738" data-name="Group 35738" transform="translate(-0.318)">
      <rect id="Rectangle_12" data-name="Rectangle 12" width="450" height="450" transform="translate(0.318 0)" fill="red" opacity="0"/>
      <g id="Group_270" data-name="Group 270" transform="translate(42.526 47.14)">
        <g id="Group_122" data-name="Group 122" transform="translate(0)">
          <path id="Path_77" data-name="Path 77" d="M-22010.168-22729.35s-137.939-6.111-137.6-33.285,39.1-25.365,39.1-25.365-3.85-25.01,11.908-37.277,34.416-9.443,34.416-9.443-3.775-30.205,25.654-51.252,52.877-8.645,52.877-8.645,17.1-45.949,67.934-37.25,49.121,52.533,49.121,52.533,40.52,3.055,54.506,35.832,2.258,55.5,2.258,55.5,29.8,7.781,28.252,23.572-20,22.594-71.84,30.508C-21905.445-22726.01-22010.168-22729.35-22010.168-22729.35Z" transform="translate(22147.771 22932.963)" fill="#ccc"/>
          <path id="Path_74" data-name="Path 74" d="M-22019.3-22750.809s-134.744-5.971-135.043-25.381c-.3-19.387,39.283-15.5,39.283-15.5s-6.381-24.754,6.6-37.91,38.066-8.41,38.066-8.41-4.34-33.676,23.457-52.877,50.793-3.791,50.793-3.791,15.477-47.293,62.766-40.141,40.541,50.1,40.541,50.1,41.674.885,55.855,30.656-1.246,59.537-1.246,59.537,33.484,7.7,31.053,18.336-26.664,15.031-72,21.951S-22019.3-22750.809-22019.3-22750.809Z" transform="translate(22164.031 22945.156)" fill="#d3d3d3"/>
          <path id="Path_89" data-name="Path 89" d="M-22019.3-22782.807s-134.744-5.98-135.043-25.385,39.283-15.5,39.283-15.5-6.381-24.752,6.6-37.908,38.066-8.41,38.066-8.41,13.223,62.932,74.945,53.578,70.217-87.867,70.217-87.867a167.979,167.979,0,0,1,14.354,16.514c13.232,17.271,28.926,45.461,7.16,61.266-33.424,24.248,65.49,0,65.49,0s33.484,7.7,31.053,18.326-26.664,15.033-72,21.951S-22019.3-22782.807-22019.3-22782.807Z" transform="translate(22164.031 22977.156)" fill="#bababa"/>
        </g>
        <g id="Group_547" data-name="Group 547" transform="translate(59.015 221.685)">
          <path id="Union_36" data-name="Union 36" d="M29.114,68.068a2,2,0,0,1-2-2v-7.24l-5.05,3.536a2,2,0,0,1-2.786-.491l-.769-1.1A2,2,0,0,1,19,57.991l8.113-5.681V38.658L16.331,44.635,15.3,54.482a2,2,0,0,1-2.2,1.78l-1.332-.14a2,2,0,0,1-1.779-2.2L10.63,47.8,3.619,51.682A2,2,0,0,1,.9,50.9L.251,49.731a2,2,0,0,1,.78-2.719l6.861-3.8L2.624,40.64A2,2,0,0,1,1.7,37.966l.587-1.2a2,2,0,0,1,2.675-.921l8.627,4.208,10.975-6.084L13.874,27.792,4.9,31.977A2,2,0,0,1,2.24,31.01L1.674,29.8a2,2,0,0,1,.967-2.658L8.23,24.533,1.282,20.522A2,2,0,0,1,.55,17.79l.67-1.16A2,2,0,0,1,3.951,15.9l6.794,3.923-.51-5.835a2,2,0,0,1,1.818-2.166l1.334-.117a2,2,0,0,1,2.166,1.818l.836,9.559,10.725,6.192V16.537L19,10.859a2,2,0,0,1-.491-2.786l.768-1.1a2,2,0,0,1,2.785-.491l5.049,3.536V2a2,2,0,0,1,2-2h1.338a2,2,0,0,1,2,2V9.844l4.8-3.358a2,2,0,0,1,2.785.491l.768,1.1a2,2,0,0,1-.491,2.785l-7.858,5.5V29.6l12.732-7.058,1-9.544a2,2,0,0,1,2.2-1.779l1.33.14a2,2,0,0,1,1.78,2.2l-.613,5.827,6.183-3.427a2,2,0,0,1,2.719.779l.649,1.171a2,2,0,0,1-.78,2.719L53.32,24.131l5.54,2.7a2,2,0,0,1,.921,2.674l-.587,1.2a2,2,0,0,1-2.675.922l-8.9-4.341L35.409,34.06l12.263,7.08,8.7-4.056a2,2,0,0,1,2.658.968l.566,1.212a2,2,0,0,1-.968,2.658L53.316,44.4l6.12,3.533a2,2,0,0,1,.732,2.732l-.67,1.159a2,2,0,0,1-2.731.732L50.5,48.937l.537,6.14a2,2,0,0,1-1.818,2.166l-1.334.117a2,2,0,0,1-2.167-1.818l-.863-9.864-12.4-7.16V52.485l7.861,5.5a2,2,0,0,1,.491,2.785l-.768,1.1a2,2,0,0,1-2.786.491L32.452,59v7.066a2,2,0,0,1-2,2Z" transform="translate(188.796)" fill="#fff"/>
          <path id="Union_37" data-name="Union 37" d="M27.777,63.8a2,2,0,0,1-2-2V55.143L21.458,58.1a2.6,2.6,0,0,1-3.566-.614h0A2.466,2.466,0,0,1,18.52,54l7.257-4.965v-12.8l-10.343,5.6-.926,8.6a2.547,2.547,0,0,1-2.814,2.228,2.518,2.518,0,0,1-2.279-2.75l.551-5.12L3.8,48.141a2.593,2.593,0,0,1-3.481-.976,2.474,2.474,0,0,1,1-3.4L7.339,40.5,2.864,38.37a2.477,2.477,0,0,1-1.179-3.345,2.588,2.588,0,0,1,3.424-1.152l7.7,3.669,10.527-5.7L13.077,26.051,5.049,29.709a2.585,2.585,0,0,1-3.4-1.21h0a2.478,2.478,0,0,1,1.238-3.325L7.663,23,1.555,19.551a2.472,2.472,0,0,1-.938-3.418,2.6,2.6,0,0,1,3.5-.916l5.96,3.363-.433-4.844a2.561,2.561,0,0,1,5.1-.436l.746,8.335,10.287,5.8V15.5l-7.255-4.964a2.466,2.466,0,0,1-.628-3.485,2.6,2.6,0,0,1,3.566-.615l4.317,2.954V2a2,2,0,0,1,2-2H28.9a2,2,0,0,1,2,2V9.227L34.971,6.44a2.6,2.6,0,0,1,3.566.615,2.466,2.466,0,0,1-.628,3.485l-7.011,4.8V27.741L43.11,21.126l.9-8.321a2.546,2.546,0,0,1,2.813-2.227A2.518,2.518,0,0,1,49.1,13.327l-.52,4.837,5.368-2.908a2.593,2.593,0,0,1,3.481.976,2.473,2.473,0,0,1-1,3.4L50.915,22.62l4.736,2.258a2.476,2.476,0,0,1,1.179,3.345h0a2.588,2.588,0,0,1-3.424,1.152l-7.959-3.794L33.734,31.927,45.5,38.564l7.762-3.537a2.585,2.585,0,0,1,3.4,1.21,2.478,2.478,0,0,1-1.238,3.325l-4.513,2.057,5.314,3a2.471,2.471,0,0,1,.937,3.418,2.593,2.593,0,0,1-3.5.915l-5.455-3.078L48.667,51a2.52,2.52,0,0,1-2.327,2.711h0a2.545,2.545,0,0,1-2.774-2.275l-.772-8.621L30.9,36.106V49.2L37.912,54a2.465,2.465,0,0,1,.629,3.484,2.6,2.6,0,0,1-3.566.615L30.9,55.307v6.5a2,2,0,0,1-2,2Z" transform="translate(50.714 78.98)" fill="#fff"/>
          <path id="Union_39" data-name="Union 39" d="M27.777,63.8a2,2,0,0,1-2-2V55.143L21.458,58.1a2.6,2.6,0,0,1-3.566-.614h0A2.466,2.466,0,0,1,18.52,54l7.257-4.965v-12.8l-10.343,5.6-.926,8.6a2.547,2.547,0,0,1-2.814,2.228,2.518,2.518,0,0,1-2.279-2.75l.551-5.12L3.8,48.141a2.593,2.593,0,0,1-3.481-.976,2.474,2.474,0,0,1,1-3.4L7.339,40.5,2.864,38.37a2.477,2.477,0,0,1-1.179-3.345,2.588,2.588,0,0,1,3.424-1.152l7.7,3.669,10.527-5.7L13.077,26.051,5.049,29.709a2.585,2.585,0,0,1-3.4-1.21h0a2.478,2.478,0,0,1,1.238-3.325L7.663,23,1.555,19.551a2.472,2.472,0,0,1-.938-3.418,2.6,2.6,0,0,1,3.5-.916l5.96,3.363-.433-4.844a2.561,2.561,0,0,1,5.1-.436l.746,8.335,10.287,5.8V15.5l-7.255-4.964a2.466,2.466,0,0,1-.628-3.485,2.6,2.6,0,0,1,3.566-.615l4.317,2.954V2a2,2,0,0,1,2-2H28.9a2,2,0,0,1,2,2V9.227L34.971,6.44a2.6,2.6,0,0,1,3.566.615,2.466,2.466,0,0,1-.628,3.485l-7.011,4.8V27.741L43.11,21.126l.9-8.321a2.546,2.546,0,0,1,2.813-2.227A2.518,2.518,0,0,1,49.1,13.327l-.52,4.837,5.368-2.908a2.593,2.593,0,0,1,3.481.976,2.473,2.473,0,0,1-1,3.4L50.915,22.62l4.736,2.258a2.476,2.476,0,0,1,1.179,3.345h0a2.588,2.588,0,0,1-3.424,1.152l-7.959-3.794L33.734,31.927,45.5,38.564l7.762-3.537a2.585,2.585,0,0,1,3.4,1.21,2.478,2.478,0,0,1-1.238,3.325l-4.513,2.057,5.314,3a2.471,2.471,0,0,1,.937,3.418,2.593,2.593,0,0,1-3.5.915l-5.455-3.078L48.667,51a2.52,2.52,0,0,1-2.327,2.711h0a2.545,2.545,0,0,1-2.774-2.275l-.772-8.621L30.9,36.106V49.2L37.912,54a2.465,2.465,0,0,1,.629,3.484,2.6,2.6,0,0,1-3.566.615L30.9,55.307v6.5a2,2,0,0,1-2,2Z" transform="translate(0 4.265)" fill="#fff"/>
          <path id="Union_38" data-name="Union 38" d="M19.718,46.849V42.182l-3.3,2.261a1.989,1.989,0,0,1-2.728-.471,1.887,1.887,0,0,1,.481-2.666l5.55-3.8V27.72l-7.912,4.286L11.1,38.588a1.949,1.949,0,0,1-2.153,1.7,1.926,1.926,0,0,1-1.743-2.1l.421-3.916L2.909,36.825a1.983,1.983,0,0,1-2.663-.746,1.891,1.891,0,0,1,.763-2.6l4.6-2.494L2.191,29.352a1.9,1.9,0,0,1-.9-2.56,1.979,1.979,0,0,1,2.619-.881L9.8,28.718l8.053-4.362L10,19.928l-6.14,2.8a1.979,1.979,0,0,1-2.6-.925,1.9,1.9,0,0,1,.948-2.543l3.655-1.666L1.189,14.955a1.891,1.891,0,0,1-.716-2.615,1.984,1.984,0,0,1,2.676-.7l4.559,2.572-.332-3.705a1.959,1.959,0,0,1,3.9-.334l.571,6.376,7.869,4.44v-9.13l-5.549-3.8A1.886,1.886,0,0,1,13.688,5.4a1.987,1.987,0,0,1,2.728-.47l3.3,2.259V1.958a1.958,1.958,0,0,1,3.917,0v5.1l3.117-2.133a1.989,1.989,0,0,1,2.728.47A1.886,1.886,0,0,1,29,8.061l-5.363,3.671v9.49l9.342-5.061.685-6.366a1.948,1.948,0,0,1,2.153-1.7,1.924,1.924,0,0,1,1.742,2.1l-.4,3.7,4.107-2.225a1.981,1.981,0,0,1,2.662.746,1.891,1.891,0,0,1-.763,2.6L38.947,17.3l3.623,1.727a1.893,1.893,0,0,1,.9,2.559h0a1.98,1.98,0,0,1-2.619.881l-6.088-2.9L25.8,24.423l9,5.077,5.938-2.706a1.978,1.978,0,0,1,2.6.926,1.9,1.9,0,0,1-.948,2.542l-3.453,1.573,4.065,2.294a1.89,1.89,0,0,1,.717,2.614,1.984,1.984,0,0,1-2.676.7l-4.173-2.354.351,3.924a1.928,1.928,0,0,1-1.78,2.074h0a1.945,1.945,0,0,1-2.121-1.74l-.591-6.595-9.1-5.135V37.635L29,41.306a1.885,1.885,0,0,1,.481,2.665,1.987,1.987,0,0,1-2.727.47l-3.119-2.134v4.542a1.958,1.958,0,1,1-3.917,0Z" transform="translate(101.817 11.764)" fill="#fff"/>
          <path id="Union_40" data-name="Union 40" d="M19.718,46.849V42.182l-3.3,2.261a1.989,1.989,0,0,1-2.728-.471,1.887,1.887,0,0,1,.481-2.666l5.55-3.8V27.72l-7.912,4.286L11.1,38.588a1.949,1.949,0,0,1-2.153,1.7,1.926,1.926,0,0,1-1.743-2.1l.421-3.916L2.909,36.825a1.983,1.983,0,0,1-2.663-.746,1.891,1.891,0,0,1,.763-2.6l4.6-2.494L2.191,29.352a1.9,1.9,0,0,1-.9-2.56,1.979,1.979,0,0,1,2.619-.881L9.8,28.718l8.053-4.362L10,19.928l-6.14,2.8a1.979,1.979,0,0,1-2.6-.925,1.9,1.9,0,0,1,.948-2.543l3.655-1.666L1.189,14.955a1.891,1.891,0,0,1-.716-2.615,1.984,1.984,0,0,1,2.676-.7l4.559,2.572-.332-3.705a1.959,1.959,0,0,1,3.9-.334l.571,6.376,7.869,4.44v-9.13l-5.549-3.8A1.886,1.886,0,0,1,13.688,5.4a1.987,1.987,0,0,1,2.728-.47l3.3,2.259V1.958a1.958,1.958,0,0,1,3.917,0v5.1l3.117-2.133a1.989,1.989,0,0,1,2.728.47A1.886,1.886,0,0,1,29,8.061l-5.363,3.671v9.49l9.342-5.061.685-6.366a1.948,1.948,0,0,1,2.153-1.7,1.924,1.924,0,0,1,1.742,2.1l-.4,3.7,4.107-2.225a1.981,1.981,0,0,1,2.662.746,1.891,1.891,0,0,1-.763,2.6L38.947,17.3l3.623,1.727a1.893,1.893,0,0,1,.9,2.559h0a1.98,1.98,0,0,1-2.619.881l-6.088-2.9L25.8,24.423l9,5.077,5.938-2.706a1.978,1.978,0,0,1,2.6.926,1.9,1.9,0,0,1-.948,2.542l-3.453,1.573,4.065,2.294a1.89,1.89,0,0,1,.717,2.614,1.984,1.984,0,0,1-2.676.7l-4.173-2.354.351,3.924a1.928,1.928,0,0,1-1.78,2.074h0a1.945,1.945,0,0,1-2.121-1.74l-.591-6.595-9.1-5.135V37.635L29,41.306a1.885,1.885,0,0,1,.481,2.665,1.987,1.987,0,0,1-2.727.47l-3.119-2.134v4.542a1.958,1.958,0,1,1-3.917,0Z" transform="translate(147.748 88.237)" fill="#fff"/>
        </g>
        <g id="Group_34306" data-name="Group 34306" transform="translate(57.255 219.927)">
          <path id="Union_36-2" data-name="Union 36" d="M30.3,68.826a2.671,2.671,0,0,0,2.669-2.669v-6.4l4.25,2.976a2.669,2.669,0,1,0,3.062-4.372l-7.311-5.12V39.277l12.4,7.16.805,9.2a2.669,2.669,0,1,0,5.318-.465L51.016,49.7,56.7,52.979a2.669,2.669,0,1,0,2.669-4.623l-5.54-3.2,4.705-2.193a2.669,2.669,0,0,0-2.255-4.838L48.189,41.9,35.925,34.818l12.213-6.77,8.3,4.048a2.67,2.67,0,1,0,2.342-4.8l-4.938-2.409L59.586,21.7A2.669,2.669,0,1,0,57,17.034l-5.6,3.1.543-5.161a2.67,2.67,0,0,0-5.31-.559L45.7,23.3,32.97,30.353V17.119L40.278,12a2.669,2.669,0,0,0-3.062-4.373L32.97,10.6V3.427a2.67,2.67,0,0,0-5.34,0v7.35l-4.5-3.151A2.67,2.67,0,0,0,20.067,12l7.563,5.3V30.029L16.906,23.838l-.777-8.892a2.67,2.67,0,1,0-5.319.465l.453,5.169L5.047,16.991a2.669,2.669,0,0,0-2.669,4.623l6.368,3.677-4.98,2.323a2.669,2.669,0,0,0,2.256,4.838l8.368-3.9,10.694,6.174L14.108,40.807,6.083,36.894a2.669,2.669,0,1,0-2.34,4.8l4.665,2.276L2.133,47.446a2.669,2.669,0,0,0,2.588,4.669l6.426-3.562-.575,5.462a2.67,2.67,0,1,0,5.31.559l.965-9.18L27.63,39.416V53.068l-7.565,5.3a2.67,2.67,0,0,0,3.063,4.373l4.5-3.152v6.571A2.671,2.671,0,0,0,30.3,68.826m0,1.758a4.433,4.433,0,0,1-4.429-4.427V62.963l-1.735,1.215a4.428,4.428,0,1,1-5.08-7.254l6.815-4.772V42.4L18.5,46.488l-.869,8.27a4.416,4.416,0,0,1-4.4,3.965,4.483,4.483,0,0,1-.465-.024,4.436,4.436,0,0,1-3.942-4.866l.221-2.1L5.573,53.652A4.427,4.427,0,0,1,1.28,45.908L4.6,44.067l-1.63-.8a4.427,4.427,0,0,1,1.942-8.406,4.384,4.384,0,0,1,1.94.45l7.2,3.512,7.457-4.134L14.3,30.53,6.765,34.046a4.393,4.393,0,0,1-1.869.416A4.446,4.446,0,0,1,.881,31.905,4.426,4.426,0,0,1,3.024,26.02l1.919-.895L1.5,23.137a4.427,4.427,0,1,1,4.428-7.668l3.289,1.9-.158-1.8a4.428,4.428,0,0,1,8.822-.773l.7,7.982,7.294,4.211V18.21L19.059,13.44a4.428,4.428,0,0,1,5.08-7.254L25.872,7.4V3.427a4.428,4.428,0,0,1,8.856,0v3.8l1.48-1.037a4.427,4.427,0,0,1,5.079,7.253l-6.559,4.593v9.334l9.32-5.166.837-7.968a4.418,4.418,0,0,1,4.4-3.964,4.429,4.429,0,0,1,4.406,4.889l-.19,1.8L56.145,15.5a4.427,4.427,0,1,1,4.293,7.744L57.644,24.79l1.9.928a4.428,4.428,0,0,1-3.882,7.959L48.19,30.03,39.495,34.85l8.781,5.069,7.263-3.387a4.387,4.387,0,0,1,1.869-.416,4.443,4.443,0,0,1,4.014,2.558,4.427,4.427,0,0,1-2.142,5.883l-1.644.766,2.615,1.51A4.427,4.427,0,1,1,55.824,54.5l-2.762-1.595.184,2.109a4.426,4.426,0,0,1-4.024,4.8c-.129.011-.259.017-.388.017a4.428,4.428,0,0,1-4.408-4.043L43.7,47.5l-8.972-5.18V52.33l6.562,4.595a4.427,4.427,0,1,1-5.079,7.251l-1.483-1.038v3.019A4.432,4.432,0,0,1,30.3,70.584Z" transform="translate(190.039 1)" fill="#ccc"/>
          <path id="Union_37-2" data-name="Union 37" d="M29.1,64.562A2.559,2.559,0,0,0,31.656,62V56.065l4.077,2.79a2.6,2.6,0,0,0,3.566-.615,2.467,2.467,0,0,0-.63-3.484l-7.014-4.8V36.863l11.9,6.712.772,8.622a2.561,2.561,0,0,0,5.1-.437l-.46-5.131,5.456,3.079a2.591,2.591,0,0,0,3.5-.916,2.471,2.471,0,0,0-.937-3.418l-5.315-3,4.513-2.056A2.477,2.477,0,0,0,57.419,37a2.585,2.585,0,0,0-3.4-1.21l-7.763,3.537L34.492,32.685,46.2,26.34l7.96,3.793a2.588,2.588,0,0,0,3.424-1.152,2.478,2.478,0,0,0-1.179-3.346l-4.736-2.257,5.513-2.986a2.473,2.473,0,0,0,1-3.4,2.591,2.591,0,0,0-3.481-.975l-5.368,2.908.52-4.838a2.519,2.519,0,0,0-2.278-2.75,2.548,2.548,0,0,0-2.815,2.228l-.895,8.322L31.656,28.5V16.094l7.011-4.8a2.468,2.468,0,0,0,.63-3.486A2.6,2.6,0,0,0,35.73,7.2L31.656,9.985V3.318a2.56,2.56,0,1,0-5.12,0v6.833L22.218,7.2a2.6,2.6,0,0,0-3.566.615,2.464,2.464,0,0,0,.63,3.484l7.254,4.965V28.2l-10.288-5.8L15.5,14.056a2.561,2.561,0,0,0-5.1.437l.434,4.844L4.874,15.974a2.6,2.6,0,0,0-3.5.916,2.471,2.471,0,0,0,.938,3.418l6.108,3.446L3.643,25.932a2.477,2.477,0,0,0-1.237,3.324,2.584,2.584,0,0,0,3.4,1.21l8.028-3.658L24.094,32.6,13.565,38.3l-7.7-3.67a2.587,2.587,0,0,0-3.424,1.152,2.478,2.478,0,0,0,1.179,3.346L8.1,41.261l-6.02,3.261a2.473,2.473,0,0,0-1,3.4,2.591,2.591,0,0,0,3.481.975l6.163-3.338-.551,5.12a2.518,2.518,0,0,0,2.28,2.75A2.543,2.543,0,0,0,15.266,51.2l.925-8.605,10.345-5.6v12.8l-7.258,4.966a2.465,2.465,0,0,0-.628,3.484,2.6,2.6,0,0,0,3.566.615L26.536,55.9V62a2.559,2.559,0,0,0,2.56,2.56m0,1.758A4.323,4.323,0,0,1,24.778,62V59.234l-1.569,1.073a4.357,4.357,0,0,1-5.988-1.042,4.223,4.223,0,0,1,1.064-5.959l6.493-4.443V39.946L17.841,43.7l-.827,7.687a4.284,4.284,0,0,1-4.288,3.81,4.422,4.422,0,0,1-.454-.023A4.3,4.3,0,0,1,9.347,53.6a4.2,4.2,0,0,1-.922-3.109L8.618,48.7,5.4,50.444A4.352,4.352,0,0,1-.45,48.79a4.184,4.184,0,0,1-.386-3.242,4.238,4.238,0,0,1,2.077-2.573l2.98-1.614-1.356-.646A4.25,4.25,0,0,1,.656,38.248,4.18,4.18,0,0,1,.871,35a4.35,4.35,0,0,1,5.753-1.954l6.89,3.285,6.947-3.763-6.71-3.786L6.537,32.067A4.348,4.348,0,0,1,.818,30.012a4.177,4.177,0,0,1-.157-3.251,4.249,4.249,0,0,1,2.253-2.428l1.635-.745-3.1-1.749A4.235,4.235,0,0,1-.581,19.231,4.182,4.182,0,0,1-.138,16a4.357,4.357,0,0,1,5.875-1.554l3.048,1.72L8.65,14.65a4.2,4.2,0,0,1,.975-3.091,4.305,4.305,0,0,1,2.954-1.528c.125-.011.251-.016.375-.016a4.271,4.271,0,0,1,4.3,3.884l.664,7.415,6.861,3.871v-8l-6.489-4.441a4.222,4.222,0,0,1-1.065-5.96,4.357,4.357,0,0,1,5.988-1.041l1.567,1.072v-3.5a4.318,4.318,0,0,1,8.636,0V6.652l1.323-.906a4.359,4.359,0,0,1,5.987,1.04,4.226,4.226,0,0,1-1.065,5.961l-6.246,4.273v8.527l8.8-4.769.8-7.4a4.29,4.29,0,0,1,4.293-3.812,4.428,4.428,0,0,1,.449.023,4.307,4.307,0,0,1,2.927,1.58,4.2,4.2,0,0,1,.92,3.106l-.162,1.511,2.425-1.314a4.352,4.352,0,0,1,5.848,1.654,4.184,4.184,0,0,1,.386,3.242,4.238,4.238,0,0,1-2.077,2.573l-2.473,1.34,1.616.77a4.25,4.25,0,0,1,2.211,2.467,4.18,4.18,0,0,1-.215,3.251,4.35,4.35,0,0,1-5.754,1.953l-7.152-3.408-8.131,4.4,8.214,4.635,6.949-3.166a4.348,4.348,0,0,1,5.717,2.053,4.176,4.176,0,0,1,.158,3.252,4.251,4.251,0,0,1-2.255,2.429l-1.368.623,2.305,1.3a4.238,4.238,0,0,1,2.031,2.611,4.181,4.181,0,0,1-.445,3.233,4.352,4.352,0,0,1-5.874,1.552L51.016,49.8l.161,1.8a4.2,4.2,0,0,1-.975,3.091,4.305,4.305,0,0,1-2.954,1.528c-.124.011-.252.016-.378.016a4.339,4.339,0,0,1-2.892-1.1,4.222,4.222,0,0,1-1.4-2.787l-.69-7.7-8.47-4.779v9.155L39.663,53.3a4.225,4.225,0,0,1,1.066,5.958,4.357,4.357,0,0,1-5.989,1.043L33.414,59.4V62A4.323,4.323,0,0,1,29.1,66.32Z" transform="translate(51.715 79.98)" fill="#ccc"/>
          <path id="Union_39-2" data-name="Union 39" d="M29.1,64.562A2.559,2.559,0,0,0,31.656,62V56.065l4.077,2.79a2.6,2.6,0,0,0,3.566-.615,2.467,2.467,0,0,0-.63-3.484l-7.014-4.8V36.863l11.9,6.712.772,8.622a2.561,2.561,0,0,0,5.1-.437l-.46-5.131,5.456,3.079a2.591,2.591,0,0,0,3.5-.916,2.471,2.471,0,0,0-.937-3.418l-5.315-3,4.513-2.056A2.477,2.477,0,0,0,57.419,37a2.585,2.585,0,0,0-3.4-1.21l-7.763,3.537L34.492,32.685,46.2,26.34l7.96,3.793a2.588,2.588,0,0,0,3.424-1.152,2.478,2.478,0,0,0-1.179-3.346l-4.736-2.257,5.513-2.986a2.473,2.473,0,0,0,1-3.4,2.591,2.591,0,0,0-3.481-.975l-5.368,2.908.52-4.838a2.519,2.519,0,0,0-2.278-2.75,2.548,2.548,0,0,0-2.815,2.228l-.895,8.322L31.656,28.5V16.094l7.011-4.8a2.468,2.468,0,0,0,.63-3.486A2.6,2.6,0,0,0,35.73,7.2L31.656,9.985V3.318a2.56,2.56,0,1,0-5.12,0v6.833L22.218,7.2a2.6,2.6,0,0,0-3.566.615,2.464,2.464,0,0,0,.63,3.484l7.254,4.965V28.2l-10.288-5.8L15.5,14.056a2.561,2.561,0,0,0-5.1.437l.434,4.844L4.874,15.974a2.6,2.6,0,0,0-3.5.916,2.471,2.471,0,0,0,.938,3.418l6.108,3.446L3.643,25.932a2.477,2.477,0,0,0-1.237,3.324,2.584,2.584,0,0,0,3.4,1.21l8.028-3.658L24.094,32.6,13.565,38.3l-7.7-3.67a2.587,2.587,0,0,0-3.424,1.152,2.478,2.478,0,0,0,1.179,3.346L8.1,41.261l-6.02,3.261a2.473,2.473,0,0,0-1,3.4,2.591,2.591,0,0,0,3.481.975l6.163-3.338-.551,5.12a2.518,2.518,0,0,0,2.28,2.75A2.543,2.543,0,0,0,15.266,51.2l.925-8.605,10.345-5.6v12.8l-7.258,4.966a2.465,2.465,0,0,0-.628,3.484,2.6,2.6,0,0,0,3.566.615L26.536,55.9V62a2.559,2.559,0,0,0,2.56,2.56m0,1.758A4.323,4.323,0,0,1,24.778,62V59.234l-1.569,1.073a4.357,4.357,0,0,1-5.988-1.042,4.223,4.223,0,0,1,1.064-5.959l6.493-4.443V39.946L17.841,43.7l-.827,7.687a4.284,4.284,0,0,1-4.288,3.81,4.422,4.422,0,0,1-.454-.023A4.3,4.3,0,0,1,9.347,53.6a4.2,4.2,0,0,1-.922-3.109L8.618,48.7,5.4,50.444A4.352,4.352,0,0,1-.45,48.79a4.184,4.184,0,0,1-.386-3.242,4.238,4.238,0,0,1,2.077-2.573l2.98-1.614-1.356-.646A4.25,4.25,0,0,1,.656,38.248,4.18,4.18,0,0,1,.871,35a4.35,4.35,0,0,1,5.753-1.954l6.89,3.285,6.947-3.763-6.71-3.786L6.537,32.067A4.348,4.348,0,0,1,.818,30.012a4.177,4.177,0,0,1-.157-3.251,4.249,4.249,0,0,1,2.253-2.428l1.635-.745-3.1-1.749A4.235,4.235,0,0,1-.581,19.231,4.182,4.182,0,0,1-.138,16a4.357,4.357,0,0,1,5.875-1.554l3.048,1.72L8.65,14.65a4.2,4.2,0,0,1,.975-3.091,4.305,4.305,0,0,1,2.954-1.528c.125-.011.251-.016.375-.016a4.271,4.271,0,0,1,4.3,3.884l.664,7.415,6.861,3.871v-8l-6.489-4.441a4.222,4.222,0,0,1-1.065-5.96,4.357,4.357,0,0,1,5.988-1.041l1.567,1.072v-3.5a4.318,4.318,0,0,1,8.636,0V6.652l1.323-.906a4.359,4.359,0,0,1,5.987,1.04,4.226,4.226,0,0,1-1.065,5.961l-6.246,4.273v8.527l8.8-4.769.8-7.4a4.29,4.29,0,0,1,4.293-3.812,4.428,4.428,0,0,1,.449.023,4.307,4.307,0,0,1,2.927,1.58,4.2,4.2,0,0,1,.92,3.106l-.162,1.511,2.425-1.314a4.352,4.352,0,0,1,5.848,1.654,4.184,4.184,0,0,1,.386,3.242,4.238,4.238,0,0,1-2.077,2.573l-2.473,1.34,1.616.77a4.25,4.25,0,0,1,2.211,2.467,4.18,4.18,0,0,1-.215,3.251,4.35,4.35,0,0,1-5.754,1.953l-7.152-3.408-8.131,4.4,8.214,4.635,6.949-3.166a4.348,4.348,0,0,1,5.717,2.053,4.176,4.176,0,0,1,.158,3.252,4.251,4.251,0,0,1-2.255,2.429l-1.368.623,2.305,1.3a4.238,4.238,0,0,1,2.031,2.611,4.181,4.181,0,0,1-.445,3.233,4.352,4.352,0,0,1-5.874,1.552L51.016,49.8l.161,1.8a4.2,4.2,0,0,1-.975,3.091,4.305,4.305,0,0,1-2.954,1.528c-.124.011-.252.016-.378.016a4.339,4.339,0,0,1-2.892-1.1,4.222,4.222,0,0,1-1.4-2.787l-.69-7.7-8.47-4.779v9.155L39.663,53.3a4.225,4.225,0,0,1,1.066,5.958,4.357,4.357,0,0,1-5.989,1.043L33.414,59.4V62A4.323,4.323,0,0,1,29.1,66.32Z" transform="translate(1.001 5.265)" fill="#ccc"/>
          <path id="Union_38-2" data-name="Union 38" d="M22.435,49.566a1.958,1.958,0,0,0,1.959-1.959V43.065L27.512,45.2a1.988,1.988,0,0,0,2.728-.47,1.885,1.885,0,0,0-.481-2.664l-5.365-3.672V28.377l9.1,5.134.591,6.6a1.946,1.946,0,0,0,2.122,1.74,1.926,1.926,0,0,0,1.78-2.073l-.351-3.926L41.809,38.2a1.984,1.984,0,0,0,2.676-.7,1.891,1.891,0,0,0-.717-2.615L39.7,32.594l3.452-1.573a1.894,1.894,0,0,0,.948-2.543,1.976,1.976,0,0,0-2.6-.926l-5.938,2.705-9-5.077,8.961-4.854,6.088,2.9a1.977,1.977,0,0,0,2.619-.881h0a1.9,1.9,0,0,0-.9-2.558L39.7,18.061l4.218-2.285a1.891,1.891,0,0,0,.764-2.6,1.984,1.984,0,0,0-2.663-.747l-4.107,2.225.4-3.7a1.925,1.925,0,0,0-1.742-2.1,1.949,1.949,0,0,0-2.153,1.7l-.685,6.365-9.342,5.061V12.49l5.364-3.671a1.887,1.887,0,0,0,.481-2.666,1.988,1.988,0,0,0-2.728-.47L24.394,7.817v-5.1a1.959,1.959,0,1,0-3.918,0V7.942l-3.3-2.259a1.988,1.988,0,0,0-2.728.47,1.887,1.887,0,0,0,.481,2.666l5.549,3.8v9.132l-7.868-4.439-.571-6.376a1.947,1.947,0,0,0-2.122-1.74,1.927,1.927,0,0,0-1.78,2.074l.331,3.706L3.906,12.4a1.983,1.983,0,0,0-2.676.7,1.891,1.891,0,0,0,.718,2.614l4.673,2.636L2.966,20.015a1.9,1.9,0,0,0-.948,2.544,1.979,1.979,0,0,0,2.6.926l6.141-2.8,7.847,4.427-8.053,4.362L4.667,26.668a1.979,1.979,0,0,0-2.619.881,1.894,1.894,0,0,0,.9,2.56l3.423,1.632L1.768,34.236A1.891,1.891,0,0,0,1,36.837a1.982,1.982,0,0,0,2.663.747l4.715-2.554-.421,3.917A1.925,1.925,0,0,0,9.7,41.05h0a1.948,1.948,0,0,0,2.152-1.7l.708-6.583,7.912-4.286v9.788l-5.55,3.8a1.887,1.887,0,0,0-.481,2.666,1.988,1.988,0,0,0,2.728.47l3.3-2.261v4.668a1.959,1.959,0,0,0,1.959,1.959m0,1.758a3.721,3.721,0,0,1-3.717-3.717V46.273l-.553.378a3.747,3.747,0,0,1-5.15-.9,3.645,3.645,0,0,1,.918-5.141l4.785-3.275V31.43l-4.5,2.44L13.6,39.534a3.691,3.691,0,0,1-3.693,3.285c-.094,0-.189,0-.283-.011H9.614L9.523,42.8A3.7,3.7,0,0,1,7,41.439a3.618,3.618,0,0,1-.792-2.682l.063-.587L4.5,39.13A3.743,3.743,0,0,1-.525,37.7a3.609,3.609,0,0,1-.333-2.8A3.654,3.654,0,0,1,.931,32.69L2.5,31.841l-.3-.145a3.66,3.66,0,0,1-1.9-2.125,3.609,3.609,0,0,1,.186-2.808,3.675,3.675,0,0,1,1.734-1.7A3.7,3.7,0,0,1,.432,23.317,3.61,3.61,0,0,1,.3,20.505a3.66,3.66,0,0,1,1.942-2.091l.51-.232-1.663-.938A3.652,3.652,0,0,1-.665,15a3.609,3.609,0,0,1,.381-2.789A3.744,3.744,0,0,1,4.77,10.867l1.648.93-.034-.375a3.619,3.619,0,0,1,.84-2.668A3.7,3.7,0,0,1,9.766,7.439c.107-.009.215-.014.322-.014a3.732,3.732,0,0,1,2.4.858,3.708,3.708,0,0,1-.094-.4,3.613,3.613,0,0,1,.628-2.753,3.747,3.747,0,0,1,5.149-.9l.552.377V2.717a3.717,3.717,0,1,1,7.434,0V4.483l.366-.251a3.747,3.747,0,0,1,5.15.9,3.645,3.645,0,0,1-.918,5.141l-4.6,3.147v5.61l5.935-3.215.586-5.447a3.694,3.694,0,0,1,3.694-3.285,3.8,3.8,0,0,1,.387.02,3.7,3.7,0,0,1,2.519,1.36,3.615,3.615,0,0,1,.791,2.681l-.04.371,1.163-.63a3.744,3.744,0,0,1,5.029,1.424,3.61,3.61,0,0,1,.334,2.8,3.654,3.654,0,0,1-1.789,2.219l-1.18.639.505.241a3.661,3.661,0,0,1,1.9,2.125,3.608,3.608,0,0,1-.184,2.8l-.485.974H45.1a3.756,3.756,0,0,1-4.247.71L35.574,22.3,30.2,25.212l5.451,3.075,5.124-2.334a3.738,3.738,0,0,1,4.918,1.769,3.605,3.605,0,0,1,.136,2.808,3.66,3.66,0,0,1-1.942,2.092l-.306.14,1.056.6a3.651,3.651,0,0,1,1.75,2.249A3.611,3.611,0,0,1,46,38.4a3.745,3.745,0,0,1-5.053,1.336l-1.261-.711.053.595a3.617,3.617,0,0,1-.84,2.666A3.7,3.7,0,0,1,36.356,43.6c-.107.009-.215.014-.322.014a3.677,3.677,0,0,1-3.7-3.351l-.509-5.673-5.673-3.2v6.078l4.6,3.148a3.643,3.643,0,0,1,.917,5.139,3.747,3.747,0,0,1-5.149.9l-.368-.252v1.209A3.721,3.721,0,0,1,22.435,51.324ZM5.391,25.066l.032.015L10.505,27.5l4.471-2.422-4.3-2.425Zm8.886-8.835,4.442,2.506V13.543L13.935,10.27q-.148-.1-.284-.214a3.711,3.711,0,0,1,.136.718Z" transform="translate(102.818 12.764)" fill="#ccc"/>
          <path id="Union_40-2" data-name="Union 40" d="M22.435,49.566a1.958,1.958,0,0,0,1.959-1.959V43.065L27.512,45.2a1.988,1.988,0,0,0,2.728-.47,1.885,1.885,0,0,0-.481-2.664l-5.365-3.672V28.377l9.1,5.134.591,6.6a1.946,1.946,0,0,0,2.122,1.74,1.926,1.926,0,0,0,1.78-2.073l-.351-3.926L41.809,38.2a1.984,1.984,0,0,0,2.676-.7,1.891,1.891,0,0,0-.717-2.615L39.7,32.594l3.452-1.573a1.894,1.894,0,0,0,.948-2.543,1.976,1.976,0,0,0-2.6-.926l-5.938,2.705-9-5.077,8.961-4.854,6.088,2.9a1.977,1.977,0,0,0,2.619-.881h0a1.9,1.9,0,0,0-.9-2.558L39.7,18.061l4.218-2.285a1.891,1.891,0,0,0,.764-2.6,1.984,1.984,0,0,0-2.663-.747l-4.107,2.225.4-3.7a1.925,1.925,0,0,0-1.742-2.1,1.949,1.949,0,0,0-2.153,1.7l-.685,6.365-9.342,5.061V12.49l5.364-3.671a1.887,1.887,0,0,0,.481-2.666,1.988,1.988,0,0,0-2.728-.47L24.394,7.817v-5.1a1.959,1.959,0,1,0-3.918,0V7.942l-3.3-2.259a1.988,1.988,0,0,0-2.728.47,1.887,1.887,0,0,0,.481,2.666l5.549,3.8v9.132l-7.868-4.439-.571-6.376a1.947,1.947,0,0,0-2.122-1.74,1.927,1.927,0,0,0-1.78,2.074l.331,3.706L3.906,12.4a1.983,1.983,0,0,0-2.676.7,1.891,1.891,0,0,0,.718,2.614l4.673,2.636L2.966,20.015a1.9,1.9,0,0,0-.948,2.544,1.979,1.979,0,0,0,2.6.926l6.141-2.8,7.847,4.427-8.053,4.362L4.667,26.668a1.979,1.979,0,0,0-2.619.881,1.894,1.894,0,0,0,.9,2.56l3.423,1.632L1.768,34.236A1.891,1.891,0,0,0,1,36.837a1.982,1.982,0,0,0,2.663.747l4.715-2.554-.421,3.917A1.925,1.925,0,0,0,9.7,41.05h0a1.948,1.948,0,0,0,2.152-1.7l.708-6.583,7.912-4.286v9.788l-5.55,3.8a1.887,1.887,0,0,0-.481,2.666,1.988,1.988,0,0,0,2.728.47l3.3-2.261v4.668a1.959,1.959,0,0,0,1.959,1.959m0,1.758a3.721,3.721,0,0,1-3.717-3.717V46.273l-.553.378a3.747,3.747,0,0,1-5.15-.9,3.645,3.645,0,0,1,.918-5.141l4.785-3.275V31.43l-4.5,2.44L13.6,39.534a3.691,3.691,0,0,1-3.693,3.285c-.094,0-.189,0-.283-.011H9.614L9.523,42.8A3.7,3.7,0,0,1,7,41.439a3.618,3.618,0,0,1-.792-2.682l.063-.587L4.5,39.13A3.743,3.743,0,0,1-.525,37.7a3.609,3.609,0,0,1-.333-2.8A3.654,3.654,0,0,1,.931,32.69L2.5,31.841l-.3-.145a3.66,3.66,0,0,1-1.9-2.125,3.609,3.609,0,0,1,.186-2.808,3.675,3.675,0,0,1,1.734-1.7A3.7,3.7,0,0,1,.432,23.317,3.61,3.61,0,0,1,.3,20.505a3.66,3.66,0,0,1,1.942-2.091l.51-.232-1.663-.938A3.652,3.652,0,0,1-.665,15a3.609,3.609,0,0,1,.381-2.789A3.744,3.744,0,0,1,4.77,10.867l1.648.93-.034-.375a3.619,3.619,0,0,1,.84-2.668A3.7,3.7,0,0,1,9.766,7.439c.107-.009.215-.014.322-.014a3.732,3.732,0,0,1,2.4.858,3.708,3.708,0,0,1-.094-.4,3.613,3.613,0,0,1,.628-2.753,3.747,3.747,0,0,1,5.149-.9l.552.377V2.717a3.717,3.717,0,1,1,7.434,0V4.483l.366-.251a3.747,3.747,0,0,1,5.15.9,3.645,3.645,0,0,1-.918,5.141l-4.6,3.147v5.61l5.935-3.215.586-5.447a3.694,3.694,0,0,1,3.694-3.285,3.8,3.8,0,0,1,.387.02,3.7,3.7,0,0,1,2.519,1.36,3.615,3.615,0,0,1,.791,2.681l-.04.371,1.163-.63a3.744,3.744,0,0,1,5.029,1.424,3.61,3.61,0,0,1,.334,2.8,3.654,3.654,0,0,1-1.789,2.219l-1.18.639.505.241a3.661,3.661,0,0,1,1.9,2.125,3.608,3.608,0,0,1-.184,2.8l-.485.974H45.1a3.756,3.756,0,0,1-4.247.71L35.574,22.3,30.2,25.212l5.451,3.075,5.124-2.334a3.738,3.738,0,0,1,4.918,1.769,3.605,3.605,0,0,1,.136,2.808,3.66,3.66,0,0,1-1.942,2.092l-.306.14,1.056.6a3.651,3.651,0,0,1,1.75,2.249A3.611,3.611,0,0,1,46,38.4a3.745,3.745,0,0,1-5.053,1.336l-1.261-.711.053.595a3.617,3.617,0,0,1-.84,2.666A3.7,3.7,0,0,1,36.356,43.6c-.107.009-.215.014-.322.014a3.677,3.677,0,0,1-3.7-3.351l-.509-5.673-5.673-3.2v6.078l4.6,3.148a3.643,3.643,0,0,1,.917,5.139,3.747,3.747,0,0,1-5.149.9l-.368-.252v1.209A3.721,3.721,0,0,1,22.435,51.324ZM5.391,25.066l.032.015L10.505,27.5l4.471-2.422-4.3-2.425Zm8.886-8.835,4.442,2.506V13.543L13.935,10.27q-.148-.1-.284-.214a3.711,3.711,0,0,1,.136.718Z" transform="translate(148.749 89.237)" fill="#ccc"/>
        </g>
      </g>
    </g>
  </g>
</svg>
