<svg xmlns="http://www.w3.org/2000/svg" xmlns:xlink="http://www.w3.org/1999/xlink" width="450" height="450" viewBox="0 0 450 450">
  <defs>
    <clipPath id="clip-_28">
      <rect width="450" height="450"/>
    </clipPath>
  </defs>
  <g id="_28" data-name="28" clip-path="url(#clip-_28)">
    <rect width="450" height="450" fill="rgba(255,255,255,0)"/>
    <g id="Group_35753" data-name="Group 35753" transform="translate(0.102 0)">
      <rect id="Rectangle_12" data-name="Rectangle 12" width="450" height="450" transform="translate(-0.102 0)" fill="red" opacity="0"/>
      <g id="Group_128" data-name="Group 128" transform="translate(41.626 66.504)">
        <g id="Group_122" data-name="Group 122" transform="translate(0 0)">
          <path id="Path_77" data-name="Path 77" d="M-22009.539-22728.988s-138.57-6.119-138.238-33.342,39.27-25.41,39.27-25.41-3.863-25.055,11.971-37.348,34.576-9.463,34.576-9.463-3.795-30.252,25.758-51.336,53.127-8.664,53.127-8.664,17.174-46.031,68.232-37.314,49.342,52.633,49.342,52.633,40.709,3.055,54.758,35.893,2.264,55.6,2.264,55.6,29.936,7.793,28.387,23.611-20.094,22.633-72.17,30.559S-22009.539-22728.988-22009.539-22728.988Z" transform="translate(22147.777 22932.963)" fill="#ccc"/>
          <path id="Path_74" data-name="Path 74" d="M-22018.67-22750.482s-135.383-5.982-135.678-25.424c-.3-19.426,39.461-15.527,39.461-15.527s-6.4-24.8,6.635-37.979,38.244-8.42,38.244-8.42-4.361-33.738,23.563-52.977,51.023-3.795,51.023-3.795,15.561-47.373,63.064-40.215,40.732,50.186,40.732,50.186,41.861.885,56.111,30.717c14.252,29.813-1.25,59.646-1.25,59.646s33.641,7.707,31.2,18.363-26.783,15.061-72.336,21.992S-22018.67-22750.482-22018.67-22750.482Z" transform="translate(22164.051 22945.178)" fill="#d3d3d3"/>
          <path id="Path_89" data-name="Path 89" d="M-22018.67-22782.6s-135.383-5.986-135.678-25.42,39.461-15.533,39.461-15.533-6.4-24.795,6.635-37.977,38.244-8.418,38.244-8.418,13.279,63.041,75.293,53.672,70.539-88.029,70.539-88.029a168.564,168.564,0,0,1,14.426,16.549c13.291,17.3,29.063,45.543,7.193,61.365-33.582,24.3,65.793,0,65.793,0s33.641,7.721,31.2,18.371-26.783,15.055-72.336,21.986S-22018.67-22782.6-22018.67-22782.6Z" transform="translate(22164.051 22977.291)" fill="#bababa"/>
        </g>
        <g id="Group_127" data-name="Group 127" transform="translate(94.829 241.152)">
          <path id="Path_120" data-name="Path 120" d="M34.977,15.829,5.634,14.759C2.609,14.648.087,11.255,0,7.181S2.3-.108,5.328,0l29.343,1.07c3.026.11,5.548,3.5,5.632,7.578S38,15.939,34.977,15.829Z" transform="translate(182.119 9.828) rotate(120)" fill="#9ae5ff"/>
          <path id="Path_120-2" data-name="Path 120" d="M35.451,15.829l-29.74-1.07C2.644,14.648.088,11.255,0,7.181S2.333-.108,5.4,0l29.74,1.07c3.067.11,5.623,3.5,5.708,7.578S38.517,15.939,35.451,15.829Z" transform="translate(96.869 61.181) rotate(120)" fill="#9ae5ff"/>
          <path id="Path_120-3" data-name="Path 120" d="M36.89,15.829,5.942,14.759C2.751,14.648.091,11.255,0,7.181S2.428-.108,5.619,0l30.947,1.07c3.191.11,5.851,3.5,5.94,7.578S40.081,15.939,36.89,15.829Z" transform="translate(34.965 7.916) rotate(120)" fill="#9ae5ff"/>
        </g>
      </g>
    </g>
  </g>
</svg>
