<svg xmlns="http://www.w3.org/2000/svg" xmlns:xlink="http://www.w3.org/1999/xlink" width="450" height="450" viewBox="0 0 450 450">
  <defs>
    <clipPath id="clip-_29">
      <rect width="450" height="450"/>
    </clipPath>
  </defs>
  <g id="_29" data-name="29" clip-path="url(#clip-_29)">
    <rect width="450" height="450" fill="rgba(255,255,255,0)"/>
    <g id="Group_35752" data-name="Group 35752" transform="translate(0.187 0)">
      <rect id="Rectangle_12" data-name="Rectangle 12" width="450" height="450" transform="translate(-0.187 0)" fill="red" opacity="0"/>
      <g id="Group_128" data-name="Group 128" transform="translate(41.783 67.244)">
        <g id="Group_122" data-name="Group 122" transform="translate(0 0)">
          <path id="Path_77" data-name="Path 77" d="M-22010.168-22729.35s-137.939-6.111-137.6-33.285,39.1-25.365,39.1-25.365-3.85-25.01,11.908-37.277,34.416-9.443,34.416-9.443-3.775-30.205,25.654-51.252,52.877-8.645,52.877-8.645,17.1-45.949,67.934-37.25,49.121,52.533,49.121,52.533,40.52,3.055,54.506,35.832,2.258,55.5,2.258,55.5,29.8,7.781,28.252,23.572-20,22.594-71.84,30.508C-21905.445-22726.01-22010.168-22729.35-22010.168-22729.35Z" transform="translate(22147.771 22932.963)" fill="#a8a8a8"/>
          <path id="Path_74" data-name="Path 74" d="M-22019.3-22750.809s-134.744-5.971-135.043-25.381c-.3-19.387,39.283-15.5,39.283-15.5s-6.381-24.754,6.6-37.91,38.066-8.41,38.066-8.41-4.34-33.676,23.457-52.877,50.793-3.791,50.793-3.791,15.477-47.293,62.766-40.141,40.541,50.1,40.541,50.1,41.674.885,55.855,30.656-1.246,59.537-1.246,59.537,33.484,7.7,31.053,18.336-26.664,15.031-72,21.951S-22019.3-22750.809-22019.3-22750.809Z" transform="translate(22164.031 22945.156)" fill="#9a9a9a"/>
          <path id="Path_89" data-name="Path 89" d="M-22019.3-22782.807s-134.744-5.98-135.043-25.385,39.283-15.5,39.283-15.5-6.381-24.752,6.6-37.908,38.066-8.41,38.066-8.41,13.223,62.932,74.945,53.578,70.217-87.867,70.217-87.867a167.979,167.979,0,0,1,14.354,16.514c13.232,17.271,28.926,45.461,7.16,61.266-33.424,24.248,65.49,0,65.49,0s33.484,7.7,31.053,18.326-26.664,15.033-72,21.951S-22019.3-22782.807-22019.3-22782.807Z" transform="translate(22164.031 22977.156)" fill="gray"/>
        </g>
        <path id="Path_120" data-name="Path 120" d="M59.263,18.649H9.324A9.324,9.324,0,0,1,9.324,0H59.263a9.324,9.324,0,0,1,0,18.649Z" transform="translate(112.449 241.223) rotate(120)" fill="#9ae5ff"/>
        <path id="Path_120-2" data-name="Path 120" d="M59.263,18.649H9.324A9.324,9.324,0,0,1,9.324,0H59.263a9.324,9.324,0,0,1,0,18.649Z" transform="translate(239.423 241.223) rotate(120)" fill="#9ae5ff"/>
        <path id="Path_121" data-name="Path 121" d="M98.184,18.649H9.324A9.324,9.324,0,0,1,9.324,0h88.86a9.324,9.324,0,0,1,0,18.649Z" transform="translate(173.581 241.223) rotate(120)" fill="#9ae5ff"/>
        <path id="Path_121-2" data-name="Path 121" d="M98.184,18.649H9.324A9.324,9.324,0,0,1,9.324,0h88.86a9.324,9.324,0,0,1,0,18.649Z" transform="translate(304.071 241.223) rotate(120)" fill="#9ae5ff"/>
      </g>
    </g>
  </g>
</svg>
