<svg xmlns="http://www.w3.org/2000/svg" xmlns:xlink="http://www.w3.org/1999/xlink" width="450" height="450" viewBox="0 0 450 450">
  <defs>
    <clipPath id="clip-_17">
      <rect width="450" height="450"/>
    </clipPath>
  </defs>
  <g id="_17" data-name="17" clip-path="url(#clip-_17)">
    <rect width="450" height="450" fill="rgba(255,255,255,0)"/>
    <g id="Group_35728" data-name="Group 35728" transform="translate(-0.339)">
      <rect id="Rectangle_12" data-name="Rectangle 12" width="450" height="450" transform="translate(0.339 0)" fill="red" opacity="0"/>
      <g id="Group_316" data-name="Group 316" transform="translate(65.371 108.92)">
        <path id="Path_447" data-name="Path 447" d="M-23187.285-17217.578c-43.5,0-84.916-24.074-82.016-30.758a13.2,13.2,0,0,1,17.313-6.859c.719.3,60.295,25.063,131.188-.3,81.732-29.242,148.541,12.178,145.127,18.611a13.2,13.2,0,0,1-17.84,5.441c-1.881-.977-48.242-24.342-118.4.779A223.2,223.2,0,0,1-23187.285-17217.578Z" transform="translate(23282.652 17282.633)" fill="#bcbcbc"/>
        <path id="Path_447_-_Outline" data-name="Path 447 - Outline" d="M-23181.59-17210.336a223.13,223.13,0,0,0,75.367-13.09c70.164-25.117,116.523-1.756,118.4-.777a13.2,13.2,0,0,0,17.838-5.445c3.416-6.426-63.4-47.85-145.127-18.609-70.9,25.375-130.467.613-131.186.3a13.217,13.217,0,0,0-17.314,6.869c-2.9,6.68,38.521,30.75,82.02,30.75m0,14.068c-45.871,0-100.9-36.635-94.924-50.418a27.255,27.255,0,0,1,25.016-16.4,27.093,27.093,0,0,1,10.76,2.215c.131.059,24.453,9.975,59.445,9.975a181.794,181.794,0,0,0,61.447-10.6c25.768-9.217,51.664-13.887,76.973-13.887,43.691,0,92.359,39.088,85.3,52.346a27.222,27.222,0,0,1-24.074,14.447,27.317,27.317,0,0,1-12.791-3.191c-.039-.025-18.146-9.168-48.2-9.168-19.086,0-38.885,3.625-58.852,10.768A237.1,237.1,0,0,1-23181.59-17196.268Z" transform="translate(23276.961 17275.389)" fill="#dedede"/>
        <path id="Path_447-2" data-name="Path 447" d="M-23186.877-17216.4c-43.5,0-73.316-12.611-75.166-13.414a13.183,13.183,0,0,1-6.848-17.346,13.192,13.192,0,0,1,17.311-6.859c.717.307,60.295,25.063,131.188-.3,81.732-29.242,137.354-.465,139.68.773a13.193,13.193,0,0,1,5.445,17.836,13.2,13.2,0,0,1-17.838,5.445c-1.881-.98-48.244-24.34-118.4.777A223.22,223.22,0,0,1-23186.877-17216.4Z" transform="translate(23282.244 17357.063)" fill="#bcbcbc"/>
        <path id="Path_447_-_Outline-2" data-name="Path 447 - Outline" d="M-23181.59-17210.336a223.13,223.13,0,0,0,75.367-13.09c70.164-25.117,116.523-1.756,118.4-.777a13.2,13.2,0,0,0,17.838-5.445c3.416-6.426-63.4-47.85-145.127-18.609-70.9,25.375-130.467.613-131.186.3a13.217,13.217,0,0,0-17.314,6.869c-2.9,6.68,38.521,30.75,82.02,30.75m0,14.068c-45.871,0-100.9-36.635-94.924-50.418a27.255,27.255,0,0,1,25.016-16.4,27.093,27.093,0,0,1,10.76,2.215c.131.059,24.453,9.975,59.445,9.975a181.794,181.794,0,0,0,61.447-10.6c25.768-9.217,51.664-13.887,76.973-13.887,43.691,0,92.359,39.088,85.3,52.346a27.222,27.222,0,0,1-24.074,14.447,27.317,27.317,0,0,1-12.791-3.191c-.039-.025-18.146-9.168-48.2-9.168-19.086,0-38.885,3.625-58.852,10.768A237.1,237.1,0,0,1-23181.59-17196.268Z" transform="translate(23276.961 17350.994)" fill="#dedede"/>
        <path id="Path_447-3" data-name="Path 447" d="M-23187.285-17217.578c-43.5,0-84.916-24.074-82.016-30.758a13.2,13.2,0,0,1,17.313-6.859c.719.3,60.295,25.063,131.188-.3,81.732-29.242,148.541,12.178,145.127,18.611a13.2,13.2,0,0,1-17.84,5.441c-1.881-.977-48.242-24.342-118.4.779A223.2,223.2,0,0,1-23187.285-17217.578Z" transform="translate(23282.652 17433.844)" fill="#bcbcbc"/>
        <path id="Path_447_-_Outline-3" data-name="Path 447 - Outline" d="M-23181.59-17210.336a223.13,223.13,0,0,0,75.367-13.09c70.164-25.117,116.523-1.756,118.4-.777a13.2,13.2,0,0,0,17.838-5.445c3.416-6.426-63.4-47.85-145.127-18.609-70.9,25.375-130.467.613-131.186.3a13.217,13.217,0,0,0-17.314,6.869c-2.9,6.68,38.521,30.75,82.02,30.75m0,14.068c-45.871,0-100.9-36.635-94.924-50.418a27.255,27.255,0,0,1,25.016-16.4,27.093,27.093,0,0,1,10.76,2.215c.131.059,24.453,9.975,59.445,9.975a181.794,181.794,0,0,0,61.447-10.6c25.768-9.217,51.664-13.887,76.973-13.887,43.691,0,92.359,39.088,85.3,52.346a27.222,27.222,0,0,1-24.074,14.447,27.317,27.317,0,0,1-12.791-3.191c-.039-.025-18.146-9.168-48.2-9.168-19.086,0-38.885,3.625-58.852,10.768A237.1,237.1,0,0,1-23181.59-17196.268Z" transform="translate(23276.961 17426.598)" fill="#dedede"/>
      </g>
    </g>
  </g>
</svg>
