<svg xmlns="http://www.w3.org/2000/svg" xmlns:xlink="http://www.w3.org/1999/xlink" width="450" height="450" viewBox="0 0 450 450">
  <defs>
    <clipPath id="clip-_2">
      <rect width="450" height="450"/>
    </clipPath>
  </defs>
  <g id="_2" data-name="2" clip-path="url(#clip-_2)">
    <rect width="450" height="450" fill="rgba(255,255,255,0)"/>
    <g id="Group_35723" data-name="Group 35723" transform="translate(-0.328)">
      <rect id="Rectangle_4" data-name="Rectangle 4" width="450" height="450" transform="translate(0.329)" fill="red" opacity="0"/>
      <g id="Group_54" data-name="Group 54" transform="translate(23.485 45.71)">
        <path id="Path_1" data-name="Path 1" d="M-23196.7-23703.477s7.227-51.877,17.334-51.48,17.563,50.541,17.563,50.541-9.576-.965-17.562-.99A98.764,98.764,0,0,0-23196.7-23703.477Z" transform="translate(23358.281 23754.959)" fill="#f5bc4b"/>
        <path id="Path_2" data-name="Path 2" d="M-23196.7-23754.967s7.227,51.873,17.334,51.482,17.592-51.08,17.592-51.08-9.486.975-17.469,1A136.26,136.26,0,0,1-23196.7-23754.967Z" transform="translate(23360.145 24063.635)" fill="#f5bc4b"/>
        <path id="Path_3" data-name="Path 3" d="M0,0S7.224,51.875,17.333,51.483,34.892.941,34.892.941s-9.576.961-17.559.989A98.915,98.915,0,0,1,0,0Z" transform="translate(51.486 160.047) rotate(90)" fill="#f5bc4b"/>
        <path id="Path_5" data-name="Path 5" d="M0,51.488S7.225-.388,17.332,0,34.894,50.545,34.894,50.545s-9.579-.96-17.561-.986A98.627,98.627,0,0,0,0,51.488Z" transform="translate(321.758 293.892) rotate(135)" fill="#f5bc4b"/>
        <path id="Path_6" data-name="Path 6" d="M0,0S7.225,51.876,17.332,51.486,34.9.486,34.9.486A146.315,146.315,0,0,1,17.332,1.929,98.627,98.627,0,0,1,0,0Z" transform="translate(101.108 76.693) rotate(135)" fill="#f5bc4b"/>
        <path id="Path_7" data-name="Path 7" d="M0,51.488S7.225-.388,17.332,0,34.894,50.545,34.894,50.545s-9.579-.96-17.561-.986A98.627,98.627,0,0,0,0,51.488Z" transform="translate(64.691 318.566) rotate(-135)" fill="#f5bc4b"/>
        <path id="Path_8" data-name="Path 8" d="M0,.631S7.225,52.507,17.332,52.117,35.185,0,35.185,0s-9.93,1.063-17.912,1.09S0,.631,0,.631Z" transform="translate(281.173 97.947) rotate(-135)" fill="#f5bc4b"/>
        <path id="Subtraction_19" data-name="Subtraction 19" d="M134.459,268.916a135.421,135.421,0,0,1-27.1-2.732,133.731,133.731,0,0,1-48.078-20.232A134.874,134.874,0,0,1,10.566,186.8a133.82,133.82,0,0,1-7.835-25.239,135.8,135.8,0,0,1,0-54.2A133.7,133.7,0,0,1,22.964,59.282,134.874,134.874,0,0,1,82.121,10.566,133.771,133.771,0,0,1,107.36,2.732a135.729,135.729,0,0,1,54.2,0A133.7,133.7,0,0,1,186.8,10.566c1.517.641,3.046,1.323,4.546,2.024a84.8,84.8,0,0,0-7.456,7.986c-.348-.151-.723-.312-1.116-.479A123.959,123.959,0,0,0,65.065,31.54,124.464,124.464,0,0,0,20.1,86.148a123.96,123.96,0,0,0,11.442,117.7,124.5,124.5,0,0,0,54.608,44.968,123.937,123.937,0,0,0,117.7-11.444,124.48,124.48,0,0,0,44.969-54.607,123.626,123.626,0,0,0,6.743-20.987c3.508-.025,7.078-.089,10.612-.193a133.731,133.731,0,0,1-20.224,48.044A134.848,134.848,0,0,1,186.8,258.349a133.638,133.638,0,0,1-25.239,7.835A135.39,135.39,0,0,1,134.459,268.916Z" transform="translate(48.155 45.622)" fill="#f7c751"/>
        <path id="Subtraction_20" data-name="Subtraction 20" d="M101.706,203.411a101.23,101.23,0,0,1-56.864-17.37A102,102,0,0,1,7.993,141.294,101.571,101.571,0,0,1,17.37,44.841,102,102,0,0,1,62.118,7.993,101.067,101.067,0,0,1,101.706,0a102.14,102.14,0,0,1,24.589,2.993,48.644,48.644,0,0,0-21.146,11.724A54.076,54.076,0,0,0,93.566,31.082,65.91,65.91,0,0,0,87.714,51.92a68.976,68.976,0,0,0,2.442,23.037,62.3,62.3,0,0,0,9.481,19.985,59.946,59.946,0,0,0,20.7,17.8c8.856,4.706,20.8,8.478,35.514,11.211a319.392,319.392,0,0,0,43.957,4.672,101.61,101.61,0,0,1-98.106,74.789Z" transform="translate(80.908 78.372)" fill="#f5bc4b"/>
        <path id="Subtraction_21" data-name="Subtraction 21" d="M62.057,124.116A62.075,62.075,0,0,1,37.9,4.877,62.354,62.354,0,0,1,78.5,2.2a63.534,63.534,0,0,0-9.437,20.337,57.688,57.688,0,0,0-1.827,9.768,69.019,69.019,0,0,0,2.441,23.037,62.3,62.3,0,0,0,9.481,19.985,59.947,59.947,0,0,0,20.7,17.8,87.985,87.985,0,0,0,12.466,5.324,62.606,62.606,0,0,1-21.61,18.664,61.788,61.788,0,0,1-28.661,7Z" transform="translate(101.383 97.988)" fill="#f7c751"/>
        <path id="Subtraction_22" data-name="Subtraction 22" d="M27.581,55.162A27.581,27.581,0,0,1,8.079,8.079,27.6,27.6,0,0,1,39.815,2.855a27.849,27.849,0,0,1,9.431,7.656c-.249,1.646-.318,2.613-.318,2.623a54.331,54.331,0,0,0-.048,7.876,72.454,72.454,0,0,0,3.536,18.583A27.581,27.581,0,0,1,27.581,55.162Z" transform="translate(119.694 117.158)" fill="#ffedc1"/>
        <g id="Group_46" data-name="Group 46" transform="translate(180.888 46.872)">
          <path id="Path_63" data-name="Path 63" d="M-23042.385-23194.891c-31.533,4.707-97.117,5.563-130.885-9.352s-32.564-47.121-32.564-47.121.1-42.574,51.025-42.152c0,0,19.279-49.883,82.248-44.984s66.523,57.016,66.523,57.016,28.129,12.117,24.713,42.5S-23010.846-23199.605-23042.385-23194.891Z" transform="translate(23205.84 23338.838)" fill="#ccc"/>
          <path id="Path_60" data-name="Path 60" d="M-23066.932-23215.3c-26.617,3.977-87.691,4.34-120.176-9.1s-26.822-41.924-26.822-41.924,4.381-31.586,47.953-26.207c0,0,13.711-51.949,74.7-47.084s58.543,55.148,58.543,55.148,27.965,7.309,24.66,34.609S-23040.311-23219.273-23066.932-23215.3Z" transform="translate(23223.313 23349.654)" fill="#fff"/>
          <path id="Union_9" data-name="Union 9" d="M0,73.064s35.793,4.251,50.154-15.846c0,0,23.665,10.2,46.542,8.92-5.734-5.59-9.761-13.34-10.28-23.921C84.574,4.481,127.146-2.705,135.168.784s7.527,16.021,1.318,18.792-29.353-.247-28.973,21.157a21.393,21.393,0,0,0,.237,2.864c4.948-8.519,15.74-14.428,28.263-14.428,17.2,0,31.146,11.153,31.146,24.909,0,11.791-10.256,21.668-24.032,24.244a.424.424,0,0,1-.041.014c-7.022,1.544-15.063,2.657-22.909,3.838a287.158,287.158,0,0,1-39.655,2.413C52.936,84.587,20.678,81.62,0,73.064Z" transform="translate(36.204 52.189)" fill="#e2e2e2"/>
        </g>
      </g>
    </g>
  </g>
</svg>
