<svg xmlns="http://www.w3.org/2000/svg" xmlns:xlink="http://www.w3.org/1999/xlink" width="450" height="450" viewBox="0 0 450 450">
  <defs>
    <clipPath id="clip-_30">
      <rect width="450" height="450"/>
    </clipPath>
  </defs>
  <g id="_30" data-name="30" clip-path="url(#clip-_30)">
    <rect width="450" height="450" fill="rgba(255,255,255,0)"/>
    <g id="Group_35756" data-name="Group 35756" transform="translate(0.187 0)">
      <rect id="Rectangle_4" data-name="Rectangle 4" width="451" height="450" transform="translate(-0.187 0)" fill="red" opacity="0"/>
      <g id="Group_247" data-name="Group 247" transform="translate(32.5 34.087)">
        <path id="Path_1" data-name="Path 1" d="M-23196.707-23713.732s5.787-41.547,13.887-41.225,14.059,40.471,14.059,40.471-7.668-.77-14.059-.793A79.153,79.153,0,0,0-23196.707-23713.732Z" transform="translate(23326.105 23754.959)" fill="#f5bc4b"/>
        <path id="Path_3" data-name="Path 3" d="M0,0S5.787,41.543,13.881,41.232,27.944.755,27.944.755s-7.671.769-14.063.789A78.9,78.9,0,0,1,0,0Z" transform="translate(41.233 128.521) rotate(90)" fill="#f5bc4b"/>
        <path id="Path_6" data-name="Path 6" d="M0,0S5.786,41.543,13.88,41.23,27.945.389,27.945.389A117.17,117.17,0,0,1,13.88,1.545,78.981,78.981,0,0,1,0,0Z" transform="translate(80.974 61.415) rotate(135)" fill="#f5bc4b"/>
        <path id="Subtraction_28" data-name="Subtraction 28" d="M3.4,39.47a3.386,3.386,0,0,1-2.593-.905c-1.255-1.355-1.054-4.226.6-8.533A87.251,87.251,0,0,1,8.086,17.054C13.391,8.242,19.426.081,19.486,0c.04.048,4.93,6.016,9.386,10.5a56.475,56.475,0,0,0,4.564,4.063A37.543,37.543,0,0,0,31,25.489C14.1,37.044,6.667,39.47,3.4,39.47Z" transform="translate(41.189 207.322)" fill="#f5bc4b"/>
        <path id="Path_8" data-name="Path 8" d="M0,.505s5.786,41.543,13.88,41.23S28.176,0,28.176,0,20.224.852,13.832.873,0,.505,0,.505Z" transform="translate(225.171 78.436) rotate(-135)" fill="#f5bc4b"/>
        <path id="Subtraction_24" data-name="Subtraction 24" d="M35.994,187.534l0,0c-1.555-1.385-3.088-2.83-4.554-4.3a107.466,107.466,0,0,1-23-34.118A106.837,106.837,0,0,1,2.181,128.97a108.351,108.351,0,0,1,0-43.264,106.742,106.742,0,0,1,16.15-38.382A107.643,107.643,0,0,1,65.558,8.435,106.839,106.839,0,0,1,85.706,2.181a108.35,108.35,0,0,1,43.264,0,106.741,106.741,0,0,1,38.382,16.15,107.961,107.961,0,0,1,28.991,28.993c.607.9,1.209,1.82,1.791,2.74a60.959,60.959,0,0,0-6.943,4.471c-.54-.856-1.109-1.729-1.694-2.594a99.365,99.365,0,0,0-43.593-35.9A98.953,98.953,0,0,0,51.94,25.179a99.364,99.364,0,0,0-35.9,43.593,98.953,98.953,0,0,0,9.135,93.964,99.782,99.782,0,0,0,12.1,14.663c.716.716,1.456,1.433,2.2,2.131a33.664,33.664,0,0,0-3.48,8Z" transform="translate(37.59 36.817)" fill="#f7c751"/>
        <path id="Subtraction_25" data-name="Subtraction 25" d="M24.656,140.768h0A82.406,82.406,0,0,1,23.759,24,80.806,80.806,0,0,1,49.543,6.439a80.4,80.4,0,0,1,72.428,4.7A82.016,82.016,0,0,1,151.057,40.4a40.806,40.806,0,0,0-3.067,4.524,39.454,39.454,0,0,0-6.2-.409,62.441,62.441,0,0,0-17.525,2.589,65.113,65.113,0,0,0-22.8,12.158A79.158,79.158,0,0,0,88.176,72.972a61.586,61.586,0,0,0-7.123,12.074,38.9,38.9,0,0,0-3.4,11.873,40.139,40.139,0,0,0-8.686,2.194,49.489,49.489,0,0,0-17.749,11.094,41.862,41.862,0,0,0-10.623,17.018,30.55,30.55,0,0,0-1.561,8.117,46.726,46.726,0,0,0-14.372,5.425Z" transform="translate(65.451 63.291)" fill="#f5bc4b"/>
        <path id="Subtraction_26" data-name="Subtraction 26" d="M33.595,96.727h0A49.724,49.724,0,0,1,30.351,3.905,49.735,49.735,0,0,1,97.5,36.086,66.913,66.913,0,0,0,85.716,43.83a79.157,79.157,0,0,0-13.285,13.7,61.587,61.587,0,0,0-7.123,12.074A38.917,38.917,0,0,0,61.9,81.482a40.118,40.118,0,0,0-8.686,2.194,49.479,49.479,0,0,0-17.748,11.1c-.645.633-1.275,1.291-1.874,1.954Z" transform="translate(81.194 78.743)" fill="#f7c751"/>
        <circle id="Ellipse_4" data-name="Ellipse 4" cx="22.087" cy="22.087" r="22.087" transform="translate(95.855 94.091)" fill="#ffedc1"/>
        <g id="Group_76" data-name="Group 76" transform="translate(88.875 96.299)">
          <path id="Path_77" data-name="Path 77" d="M-22036.342-22768.082s-111.7-4.951-111.436-26.955,31.654-20.535,31.654-20.535-3.107-20.254,9.646-30.189,27.871-7.646,27.871-7.646-3.053-24.455,20.771-41.5,42.82-7,42.82-7,13.84-37.209,55-30.168,39.775,42.545,39.775,42.545,32.813,2.473,44.135,29.016,1.83,44.945,1.83,44.945,24.133,6.3,22.883,19.082-16.189,18.295-58.178,24.7S-22036.342-22768.082-22036.342-22768.082Z" transform="translate(22147.777 22932.965)" fill="#ccc"/>
          <path id="Path_74" data-name="Path 74" d="M-22045-22785.959s-109.113-4.842-109.359-20.547,31.809-12.551,31.809-12.551-5.156-20.047,5.352-30.7,30.822-6.809,30.822-6.809-3.516-27.268,18.994-42.816,41.123-3.072,41.123-3.072,12.537-38.293,50.828-32.506,32.83,40.564,32.83,40.564,33.74.727,45.223,24.828-1,48.213-1,48.213,27.113,6.234,25.145,14.852-21.588,12.164-58.3,17.766S-22045-22785.959-22045-22785.959Z" transform="translate(22162.201 22943.336)" fill="#fff"/>
          <path id="Path_89" data-name="Path 89" d="M-22045-22805.926s-109.113-4.84-109.359-20.545,31.809-12.553,31.809-12.553-5.156-20.047,5.352-30.7,30.822-6.809,30.822-6.809,10.707,50.963,60.688,43.391,56.854-71.16,56.854-71.16a136.191,136.191,0,0,1,11.623,13.381c10.717,13.979,23.422,36.814,5.8,49.6-27.068,19.643,53.029,0,53.029,0s27.113,6.234,25.145,14.852-21.588,12.166-58.3,17.764S-22045-22805.926-22045-22805.926Z" transform="translate(22162.201 22963.297)" fill="#e2e2e2"/>
        </g>
        <g id="Group_34707" data-name="Group 34707" transform="translate(146.03 292.211)">
          <path id="Path_120" data-name="Path 120" d="M34.977,15.829,5.634,14.759C2.609,14.648.087,11.255,0,7.181S2.3-.108,5.328,0l29.343,1.07c3.026.11,5.548,3.5,5.632,7.578S38,15.939,34.977,15.829Z" transform="translate(182.119 9.828) rotate(120)" fill="#9ae5ff"/>
          <path id="Path_120-2" data-name="Path 120" d="M35.451,15.829l-29.74-1.07C2.644,14.648.088,11.255,0,7.181S2.333-.108,5.4,0l29.74,1.07c3.067.11,5.623,3.5,5.708,7.578S38.517,15.939,35.451,15.829Z" transform="translate(96.869 61.181) rotate(120)" fill="#9ae5ff"/>
          <path id="Path_120-3" data-name="Path 120" d="M36.89,15.829,5.942,14.759C2.751,14.648.091,11.255,0,7.181S2.428-.108,5.619,0l30.947,1.07c3.191.11,5.851,3.5,5.94,7.578S40.081,15.939,36.89,15.829Z" transform="translate(34.965 7.916) rotate(120)" fill="#9ae5ff"/>
        </g>
      </g>
    </g>
  </g>
</svg>