<svg xmlns="http://www.w3.org/2000/svg" xmlns:xlink="http://www.w3.org/1999/xlink" width="450" height="450" viewBox="0 0 450 450">
  <defs>
    <clipPath id="clip-_18">
      <rect width="450" height="450"/>
    </clipPath>
  </defs>
  <g id="_18" data-name="18" clip-path="url(#clip-_18)">
    <rect width="450" height="450" fill="rgba(255,255,255,0)"/>
    <g id="Group_35729" data-name="Group 35729" transform="translate(-0.268)">
      <rect id="Rectangle_12" data-name="Rectangle 12" width="450" height="450" transform="translate(0.268 0)" fill="red" opacity="0"/>
      <g id="Group_349" data-name="Group 349" transform="translate(62.581 44.406)">
        <path id="Subtraction_44" data-name="Subtraction 44" d="M145.348,290.3a144.672,144.672,0,0,1-81.266-24.822,145.765,145.765,0,0,1-52.66-63.947A145.512,145.512,0,0,1,39.076,45.794a145.789,145.789,0,0,1,42.739-31.6A144.068,144.068,0,0,1,134.593,0,119.945,119.945,0,0,0,95.585,42.233a119.2,119.2,0,0,0,5.656,124.213,119.7,119.7,0,0,0,52.514,43.243A119.2,119.2,0,0,0,267.866,198.06a120.229,120.229,0,0,0,17.784-15A145.217,145.217,0,0,1,145.348,290.3Z" transform="translate(66.204 10.812) rotate(11)" fill="#dde0d7"/>
        <path id="Subtraction_56" data-name="Subtraction 56" d="M126.441,274.544c-10.364-.006-18.292-1.981-24.95-6.216-6.117-3.891-10.748-9.339-16.111-15.647A175.631,175.631,0,0,0,71.523,237.7a118,118,0,0,0-21.4-15.911c-20.784-12.187-33.2-23.924-40.249-38.056-7.079-14.185-8.537-30.362-8.549-50.286,0-7.8-.416-14.333-.778-20.1C-.022,104.327-.471,97.2.936,89.975c1.5-7.685,5.054-15.037,11.532-23.838,4.05-5.5,8.275-13.509,12.748-21.985C33.97,27.567,43.891,8.77,55.981,1.979,58.352.647,59.9,0,60.709,0a.61.61,0,0,1,.6.284c.565,1.129-2.745,5.586-6.578,10.747C48.838,18.97,41.5,28.849,43.219,32.925a3.287,3.287,0,0,0,2.875,1.8c4.93,0,8.051,1.107,9.539,3.375,1.74,2.652,1.264,6.886-1.5,13.324C51.658,57.2,47.362,64.3,42.813,71.818c-5.778,9.548-12.327,20.37-16.257,30.418-4.505,11.519-4.9,20.311-1.211,26.879a35.183,35.183,0,0,1,6.212,18.54c.272,5.931-.782,11.555-1.8,16.995C27.173,178.437,24.942,190.343,46.194,200c12.309,5.592,33.661,9,54.309,12.3,15.641,2.5,30.414,4.86,41.706,8.1,6.071,1.742,10.524,3.569,13.616,5.585,3.463,2.259,5.147,4.7,5.149,7.462.005,8.563,2.11,14.912,6.255,18.872,3.442,3.288,8.306,4.956,14.458,4.96,7.49,0,15.37-2.447,20.66-4.5.778-.3,1.563-.621,2.333-.948-1.673.934-3.609,2.041-5.752,3.294A143.545,143.545,0,0,1,126.441,274.544Zm78.272-22.731,0,0c4.665-2.6,6.721-3.548,6.965-3.548.015,0,.024,0,.025.011C211.729,248.41,209.021,249.986,204.713,251.814Z" transform="translate(81.338 29.911) rotate(11)" fill="#d4d7ce"/>
        <path id="Subtraction_55" data-name="Subtraction 55" d="M199.479,223.326c-4.268,0-11.184-4.151-18.021-8.638a118.862,118.862,0,0,0,55.48-32.16c-.057.22-.117.439-.177.658l-.142.519c-2.959,10.732-10.667,17.041-18.827,23.72-5.189,4.247-10.554,8.637-14.893,14.375A4.036,4.036,0,0,1,199.479,223.326ZM70.116,185.994l-.007,0c-3.8-.966-7.565-1.829-11.205-2.664-12.654-2.9-24.6-5.64-33.073-11.757-9.356-6.757-13.714-17.043-13.714-32.372a98.34,98.34,0,0,0-2.762-23.732A129.83,129.83,0,0,0,3.938,99.033C-1.708,84.36-4.543,77,18.8,60.685c7.583-5.3,15.145-14.769,23.15-24.794C48.615,27.54,55.511,18.9,62.846,12.18,71.149,4.569,78.832.585,86.333,0A121.985,121.985,0,0,0,64.262,18.843,119.938,119.938,0,0,0,47.369,42.311,118.136,118.136,0,0,0,32.761,99.418a119.8,119.8,0,0,0,2.6,24.868A118.421,118.421,0,0,0,54.577,168.11,119.9,119.9,0,0,0,70.11,185.989Z" transform="translate(114.025 19.943) rotate(11)" fill="#d4d7ce"/>
        <path id="Subtraction_44-2" data-name="Subtraction 44" d="M154.571,299.495A145.417,145.417,0,0,0,294.848,192.278a119.554,119.554,0,0,1-38.28,26.33A119.184,119.184,0,0,1,142.706,207.9,119.681,119.681,0,0,1,99.47,155.4a119.307,119.307,0,0,1,5.348-103.92,119.923,119.923,0,0,1,39-42.226A144.041,144.041,0,0,0,91.049,23.437a145.314,145.314,0,0,0,63.522,276.058m0,9.249a153.9,153.9,0,0,1-86.429-26.4,154.99,154.99,0,0,1-55.992-68A154.736,154.736,0,0,1,41.557,48.724,155.012,155.012,0,0,1,87,15.121,153.25,153.25,0,0,1,143.143.025a9.249,9.249,0,0,1,5.766,16.946,110.676,110.676,0,0,0-35.99,38.965,109.927,109.927,0,0,0,5.217,114.552,110.434,110.434,0,0,0,48.444,39.895,109.929,109.929,0,0,0,105.238-10.724,110.945,110.945,0,0,0,16.41-13.839,9.249,9.249,0,0,1,15.547,8.879,154.44,154.44,0,0,1-149.2,114.046Z" transform="translate(58.911 0) rotate(11)" fill="#ccc"/>
      </g>
    </g>
  </g>
</svg>
