<svg xmlns="http://www.w3.org/2000/svg" xmlns:xlink="http://www.w3.org/1999/xlink" width="450" height="450" viewBox="0 0 450 450">
  <defs>
    <clipPath id="clip-_31">
      <rect width="450" height="450"/>
    </clipPath>
  </defs>
  <g id="_31" data-name="31" clip-path="url(#clip-_31)">
    <rect width="450" height="450" fill="rgba(255,255,255,0)"/>
    <g id="Group_35757" data-name="Group 35757" transform="translate(0 0)">
      <rect id="Rectangle_12" data-name="Rectangle 12" width="450" height="450" transform="translate(0 0)" fill="red" opacity="0"/>
      <g id="Group_448" data-name="Group 448" transform="translate(26.456 57.283)">
        <path id="Subtraction_95" data-name="Subtraction 95" d="M112.078,223.9A112.937,112.937,0,0,1,90.6,221.825a111.4,111.4,0,0,1-57.784-30.7A112.538,112.538,0,0,1,8.907,155.675,111.827,111.827,0,0,1,125.123.8,92.4,92.4,0,0,0,89.432,26.992a91.788,91.788,0,0,0-13.976,94.728,92.385,92.385,0,0,0,17.885,27.31,37.369,37.369,0,0,0-12.066,10.458,35.147,35.147,0,0,0-6.552,18.9,23.559,23.559,0,0,0,1.392,9.837,24.6,24.6,0,0,0,5.009,7.976c3.99,4.337,9.933,8.128,17.664,11.266,14.106,5.726,31.779,8.33,43.473,10.053l.03,0,1.759.26c.923.137,1.975.283,3.127.435a111.175,111.175,0,0,1-35.1,5.685Z" transform="translate(7.119 11.923)" fill="#dde0d7"/>
        <path id="Subtraction_96" data-name="Subtraction 96" d="M98.468,219.241a113.252,113.252,0,0,1-21.539-2.077c-7.86-1.531-13.58-4.188-18-8.364-4.063-3.837-6.768-8.628-9.9-14.176l-.009-.015a134.636,134.636,0,0,0-8.3-13.355A90.886,90.886,0,0,0,26.84,166.087C12.879,153.822,5.2,143.128,1.933,131.415c-3.276-11.763-2-24.2.929-39.258C4,86.28,4.655,81.3,5.228,76.905l0-.03,0-.019,0-.011,0-.012c.9-6.9,1.61-12.345,3.739-17.588,2.269-5.588,6.049-10.622,12.256-16.322,3.874-3.557,8.243-8.967,12.869-14.7l.037-.046c9.08-11.248,19.371-24,29.54-27.352A13.275,13.275,0,0,1,67.217,0a1.748,1.748,0,0,1,.337.028c.232.044.372.146.415.3.264.938-2.9,3.816-6.564,7.15l-.007.006c-5.64,5.134-12.659,11.522-11.957,14.854a2.535,2.535,0,0,0,1.914,1.786c3.737.726,5.94,2.019,6.734,3.952.929,2.26-.056,5.39-3.1,9.849-2.731,4-7.021,8.722-11.563,13.718l-.025.027c-5.783,6.36-12.338,13.569-16.808,20.6-5.112,8.041-6.709,14.627-4.88,20.135a26.977,26.977,0,0,1,1.978,14.923,56.131,56.131,0,0,1-3.87,12.579c-3.989,10.04-7.434,18.71,7.253,29.128,7.752,5.5,21.224,10.645,35.517,15.873a39.021,39.021,0,0,0-1.547,8.814,23.039,23.039,0,0,0,4.7,15.783c3.063,4.044,7.681,7.656,13.725,10.736,11.926,6.076,27.459,9.14,38.1,10.917a22.219,22.219,0,0,0,3.783,1.071,34.31,34.31,0,0,0,6.492.573h.346l.275.041,1.9.28c.926.137,1.979.284,3.129.435A109.882,109.882,0,0,1,98.468,219.241Z" transform="translate(20.798 16.584)" fill="#d4d7ce"/>
        <path id="Subtraction_55" data-name="Subtraction 55" d="M154.07,172.488c-3.3,0-8.638-3.206-13.919-6.672A91.8,91.8,0,0,0,183,140.977c-.044.17-.09.339-.137.508l-.11.4c-2.285,8.289-8.238,13.162-14.541,18.32-4.007,3.28-8.151,6.671-11.5,11.1A3.117,3.117,0,0,1,154.07,172.488ZM54.155,143.655h-.006c-2.936-.746-5.843-1.413-8.655-2.057-9.773-2.24-19-4.356-25.545-9.081-7.226-5.219-10.592-13.164-10.592-25A75.954,75.954,0,0,0,7.224,89.183,100.276,100.276,0,0,0,3.042,76.489C-1.32,65.156-3.509,59.468,14.517,46.87c5.857-4.094,11.7-11.407,17.88-19.15C37.548,21.271,42.875,14.6,48.54,9.407,54.953,3.529,60.887.452,66.68,0A94.216,94.216,0,0,0,49.633,14.554,92.635,92.635,0,0,0,36.586,32.679,91.244,91.244,0,0,0,25.3,76.787a92.526,92.526,0,0,0,2.01,19.207,91.463,91.463,0,0,0,14.84,33.848,92.607,92.607,0,0,0,12,13.809Z" transform="translate(66.792 0) rotate(11)" fill="#d4d7ce"/>
        <path id="Subtraction_97" data-name="Subtraction 97" d="M119.2,238.15h-.024a119.791,119.791,0,0,1-22.81-2.209A118.541,118.541,0,0,1,34.9,203.277,119.39,119.39,0,0,1,2.56,143.639a119.186,119.186,0,0,1,46.572-120.9,119.4,119.4,0,0,1,39.3-18.729A118.2,118.2,0,0,1,118.91,0a119.862,119.862,0,0,1,14.183.848,7.125,7.125,0,0,1,1.869,13.661A85.216,85.216,0,0,0,102.027,38.68,84.147,84.147,0,0,0,90.739,56.246a84.9,84.9,0,0,0,16.515,96.673l.056.056.031.031a47.258,47.258,0,0,0-6.877,3.145A92.175,92.175,0,0,1,77.24,111.9,91.9,91.9,0,0,1,96.556,34.116,92.386,92.386,0,0,1,132.248,7.922a112.715,112.715,0,0,0-13.336-.8,111.05,111.05,0,0,0-28.644,3.77,111.924,111.924,0,0,0,7.455,218.055,112.938,112.938,0,0,0,21.478,2.077,111.173,111.173,0,0,0,35.1-5.686c2.214.291,4.725.593,7.464.9a29.922,29.922,0,0,0-4.476,5.615,118.366,118.366,0,0,1-38.095,6.3Z" transform="translate(0 4.802)" fill="#ccc"/>
        <g id="Group_128" data-name="Group 128" transform="translate(93.169 48.949)">
          <g id="Group_122" data-name="Group 122">
            <path id="Path_77" data-name="Path 77" d="M-22032.006-22761.672s-116.045-5.141-115.766-28,32.881-21.336,32.881-21.336-3.229-21.047,10.027-31.363,28.947-7.941,28.947-7.941-3.172-25.41,21.592-43.121c24.744-17.711,44.475-7.27,44.475-7.27s14.391-38.66,57.15-31.336,41.322,44.2,41.322,44.2,34.082,2.57,45.854,30.145,1.9,46.691,1.9,46.691,25.07,6.543,23.764,19.828-16.82,19-60.434,25.66S-22032.006-22761.672-22032.006-22761.672Z" transform="translate(22147.771 22932.963)" fill="#ccc"/>
            <path id="Path_74" data-name="Path 74" d="M-22040.746-22780.137s-113.35-5.023-113.6-21.355c-.254-16.3,33.043-13.033,33.043-13.033s-5.361-20.824,5.557-31.895,32.025-7.07,32.025-7.07-3.65-28.332,19.727-44.488,42.729-3.184,42.729-3.184,13.029-39.785,52.807-33.771,34.105,42.143,34.105,42.143,35.051.746,46.984,25.793-1.049,50.084-1.049,50.084,28.168,6.482,26.121,15.422c-2.041,8.961-22.424,12.648-60.574,18.471C-21961-22777.2-22040.746-22780.137-22040.746-22780.137Z" transform="translate(22162.5 22943.631)" fill="#fff"/>
            <path id="Path_89" data-name="Path 89" d="M-22040.746-22802.092s-113.35-5.031-113.6-21.352,33.043-13.041,33.043-13.041-5.361-20.822,5.557-31.891,32.025-7.074,32.025-7.074,11.117,52.941,63.041,45.066c51.93-7.854,59.068-73.91,59.068-73.91a140.33,140.33,0,0,1,12.074,13.893c11.133,14.527,24.338,38.244,6.029,51.535-28.119,20.4,55.09,0,55.09,0s28.168,6.471,26.121,15.422-22.424,12.641-60.574,18.463C-21961-22799.156-22040.746-22802.092-22040.746-22802.092Z" transform="translate(22162.5 22965.588)" fill="#e2e2e2"/>
          </g>
          <g id="Group_34708" data-name="Group 34708" transform="translate(81.869 211.886)">
            <path id="Path_120" data-name="Path 120" d="M34.977,15.829,5.634,14.759C2.609,14.648.087,11.255,0,7.181S2.3-.108,5.328,0l29.343,1.07c3.026.11,5.548,3.5,5.632,7.578S38,15.939,34.977,15.829Z" transform="translate(182.119 9.828) rotate(120)" fill="#9ae5ff"/>
            <path id="Path_120-2" data-name="Path 120" d="M35.451,15.829l-29.74-1.07C2.644,14.648.088,11.255,0,7.181S2.333-.108,5.4,0l29.74,1.07c3.067.11,5.623,3.5,5.708,7.578S38.517,15.939,35.451,15.829Z" transform="translate(96.869 57.665) rotate(120)" fill="#9ae5ff"/>
            <path id="Path_120-3" data-name="Path 120" d="M36.89,15.829,5.942,14.759C2.751,14.648.091,11.255,0,7.181S2.428-.108,5.619,0l30.947,1.07c3.191.11,5.851,3.5,5.94,7.578S40.081,15.939,36.89,15.829Z" transform="translate(34.965 7.916) rotate(120)" fill="#9ae5ff"/>
          </g>
        </g>
      </g>
    </g>
  </g>
</svg>
