<svg xmlns="http://www.w3.org/2000/svg" xmlns:xlink="http://www.w3.org/1999/xlink" width="450" height="450" viewBox="0 0 450 450">
  <defs>
    <clipPath id="clip-_26">
      <rect width="450" height="450"/>
    </clipPath>
  </defs>
  <g id="_26" data-name="26" clip-path="url(#clip-_26)">
    <rect width="450" height="450" fill="rgba(255,255,255,0)"/>
    <g id="Group_35741" data-name="Group 35741" transform="translate(-0.453 0)">
      <rect id="Rectangle_949" data-name="Rectangle 949" width="450" height="450" transform="translate(0.454 0)" fill="red" opacity="0"/>
      <g id="Group_413" data-name="Group 413" transform="translate(19.038 84.367)">
        <g id="Group_354" data-name="Group 354" transform="translate(0 12.893) rotate(-2)">
          <path id="Subtraction_62" data-name="Subtraction 62" d="M125.441,250.605A126.3,126.3,0,0,1,101.4,248.28,124.7,124.7,0,0,1,36.73,213.912,125.636,125.636,0,0,1,2.693,151.148,125.425,125.425,0,0,1,51.7,23.929,125.7,125.7,0,0,1,93.059,4.218,124.348,124.348,0,0,1,125.122,0a126.193,126.193,0,0,1,14.925.893A103.376,103.376,0,0,0,100.1,30.21,102.408,102.408,0,0,0,78.237,76.153C72.8,81.974,69.934,90,69.712,100c-.111,5.014,2.611,9.652,8.092,13.784.2,1.157.43,2.332.675,3.492a102.86,102.86,0,0,0,159.267,63.351,124.424,124.424,0,0,1-23.585,33.014,125.056,125.056,0,0,1-88.719,36.969Z" transform="translate(7.979 7.975)" fill="#dde0d7"/>
          <path id="Subtraction_56" data-name="Subtraction 56" d="M109.2,236.564c-8.959,0-15.811-1.7-21.563-5.344-5.285-3.35-9.286-8.042-13.918-13.476a151.259,151.259,0,0,0-11.97-12.9,101.8,101.8,0,0,0-18.49-13.7c-17.959-10.492-28.682-20.6-34.77-32.775-6.111-12.221-7.363-26.161-7.363-43.331,0-6.725-.352-12.352-.662-17.317-.486-7.781-.87-13.927.35-20.15,1.3-6.624,4.377-12.961,9.98-20.549,3.5-4.746,7.16-11.647,11.031-18.953,7.575-14.3,16.161-30.5,26.614-36.36C50.491.559,51.828,0,52.528,0a.527.527,0,0,1,.521.245c.488.972-2.376,4.815-5.692,9.265-5.1,6.844-11.447,15.362-9.964,18.874a2.838,2.838,0,0,0,2.484,1.554c4.262,0,6.958.95,8.244,2.9,1.5,2.284,1.089,5.933-1.3,11.483-2.143,4.977-5.86,11.1-9.8,17.577-5,8.231-10.666,17.561-14.068,26.222-3.9,9.929-4.247,17.506-1.06,23.164a30.227,30.227,0,0,1,5.36,15.975c.232,5.111-.682,9.959-1.566,14.647-2.241,11.883-4.175,22.145,14.189,30.454,10.636,4.813,29.091,7.742,46.937,10.574,13.518,2.145,26.286,4.172,36.045,6.958,5.246,1.5,9.1,3.07,11.766,4.806,2.992,1.945,4.447,4.048,4.447,6.428,0,7.379,1.816,12.85,5.4,16.26,2.973,2.831,7.177,4.267,12.495,4.267,6.474,0,13.286-2.117,17.861-3.893.673-.261,1.351-.536,2.017-.818-1.447.806-3.121,1.761-4.974,2.841A124.474,124.474,0,0,1,109.2,236.564Zm67.668-19.63v0a42.86,42.86,0,0,1,6.022-3.061c.013,0,.021,0,.022.009A31.7,31.7,0,0,1,176.87,216.934Z" transform="translate(47.328 3.198) rotate(11)" fill="#d4d7ce"/>
          <path id="Subtraction_63" data-name="Subtraction 63" d="M147.575,208.412a4.836,4.836,0,0,1-.92-.094c-3.621-.7-8.806-5.367-13.869-10.3a102.744,102.744,0,0,0,52.386-18.139c-.054.115-.11.229-.166.342l-.093.187-.1.2-.106.213c-4.281,8.619-11.863,12.7-19.89,17.023-5.1,2.747-10.378,5.587-15.009,9.741A3.235,3.235,0,0,1,147.575,208.412ZM43.035,155.3l-.006,0c-3.059-1.444-6.1-2.794-9.049-4.1l-.021-.009c-10.259-4.548-19.948-8.844-26.126-15.432-6.825-7.277-8.826-16.725-6.3-29.733a85.043,85.043,0,0,0,1.57-20.594A111.994,111.994,0,0,0,1.223,70.6l0-.012C-1.151,57.208-2.341,50.491,20.155,40.5c7.31-3.249,15.288-10.036,23.734-17.221,7.029-5.982,14.3-12.167,21.648-16.674C72.787,2.161,79.13,0,84.931,0a22.446,22.446,0,0,1,2.546.144A105.421,105.421,0,0,0,65.639,12.493,103.687,103.687,0,0,0,47.432,29.621,102.118,102.118,0,0,0,25.617,75.673,103.519,103.519,0,0,0,23.723,97.2,102.387,102.387,0,0,0,32.8,137.562,103.546,103.546,0,0,0,43.032,155.3Z" transform="translate(60.552 8.721)" fill="#d4d7ce"/>
          <path id="Subtraction_61" data-name="Subtraction 61" d="M133.416,266.553a134.263,134.263,0,0,1-25.558-2.473,132.639,132.639,0,0,1-68.8-36.559,133.607,133.607,0,0,1-36.2-66.752A133.4,133.4,0,0,1,54.993,25.451,133.609,133.609,0,0,1,98.976,4.489,132.3,132.3,0,0,1,133.093,0a134.306,134.306,0,0,1,15.875.949,7.974,7.974,0,0,1,2.092,15.29,95.419,95.419,0,0,0-36.865,27.054,94.768,94.768,0,0,0-14.428,97.8,95.192,95.192,0,0,0,34.433,41.73,94.314,94.314,0,0,0,34.837,14.366,95.812,95.812,0,0,0,18.232,1.769,94.538,94.538,0,0,0,37.75-7.9,95.709,95.709,0,0,0,16.162-9.013,7.974,7.974,0,0,1,11.7,10.072,133.174,133.174,0,0,1-119.461,74.44ZM133.1,7.974a124.343,124.343,0,0,0-32.063,4.218,125.292,125.292,0,1,0,121.1,209.418A124.426,124.426,0,0,0,245.72,188.6,103.114,103.114,0,0,1,209,204.582a102.272,102.272,0,0,1-21.725,2.347,103.756,103.756,0,0,1-19.757-1.918,102.409,102.409,0,0,1-53.11-28.222,103.175,103.175,0,0,1-27.951-51.543,102.867,102.867,0,0,1,21.618-87.062,103.394,103.394,0,0,1,39.95-29.317A126.208,126.208,0,0,0,133.1,7.974Z" transform="translate(0 0)" fill="#ccc"/>
        </g>
        <g id="Group_132" data-name="Group 132" transform="translate(158.596 0)">
          <path id="Path_77" data-name="Path 77" d="M-22052.4-22791.857s-95.607-4.234-95.381-23.068,27.094-17.58,27.094-17.58-2.662-17.326,8.262-25.83,23.846-6.551,23.846-6.551-2.611-20.936,17.781-35.521,36.646-5.984,36.646-5.984,11.85-31.846,47.074-25.811,34.039,36.406,34.039,36.406,28.094,2.113,37.783,24.826,1.559,38.465,1.559,38.465,20.654,5.395,19.582,16.334-13.855,15.658-49.787,21.145S-22052.4-22791.857-22052.4-22791.857Z" transform="translate(22147.785 22932.965)" fill="#ccc"/>
          <path id="Path_74" data-name="Path 74" d="M-22060.762-22807.523s-93.383-4.137-93.6-17.6c-.2-13.43,27.227-10.736,27.227-10.736s-4.416-17.154,4.578-26.268,26.381-5.832,26.381-5.832-3.018-23.334,16.252-36.641,35.2-2.631,35.2-2.631,10.73-32.775,43.5-27.814,28.094,34.715,28.094,34.715,28.877.613,38.713,21.25-.871,41.254-.871,41.254,23.207,5.338,21.525,12.7c-1.687,7.381-18.477,10.418-49.9,15.217S-22060.762-22807.523-22060.762-22807.523Z" transform="translate(22161.068 22942.207)" fill="#fff"/>
          <path id="Path_89" data-name="Path 89" d="M-22060.762-22820.107s-93.383-4.145-93.6-17.588,27.227-10.738,27.227-10.738-4.416-17.156,4.578-26.277,26.381-5.824,26.381-5.824,9.16,43.611,51.936,37.133,48.652-60.9,48.652-60.9a117.376,117.376,0,0,1,9.957,11.449c9.168,11.969,20.047,31.508,4.961,42.453-23.164,16.813,45.381,0,45.381,0s23.207,5.34,21.525,12.707-18.477,10.414-49.9,15.211S-22060.762-22820.107-22060.762-22820.107Z" transform="translate(22161.068 22954.797)" fill="#e2e2e2"/>
        </g>
        <path id="Union_57" data-name="Union 57" d="M32.1,75.369a2,2,0,0,1-2-2V65.138l-5.768,4.039a2,2,0,0,1-2.785-.491l-1.1-1.566a2,2,0,0,1,.491-2.785L30.1,57.92V42.8L18.159,49.423,16.991,60.539a2,2,0,0,1-2.2,1.779l-1.9-.2a2,2,0,0,1-1.779-2.2l.735-7L3.9,57.329a2,2,0,0,1-2.719-.779L.251,54.878a2,2,0,0,1,.78-2.719l7.785-4.315L2.791,44.906a2,2,0,0,1-.922-2.674l.838-1.718a2,2,0,0,1,2.675-.921l9.746,4.753L27.28,37.61,15.438,30.773,5.306,35.5a2,2,0,0,1-2.659-.968L1.84,32.8a2,2,0,0,1,.968-2.659l6.381-2.975L1.31,22.616a2,2,0,0,1-.732-2.732l.956-1.655A2,2,0,0,1,4.266,17.5l7.709,4.451-.584-6.674a2,2,0,0,1,1.818-2.167l1.9-.167a2,2,0,0,1,2.167,1.818l.945,10.8L30.1,32.412v-14.1L20.942,11.9a2,2,0,0,1-.491-2.786l1.1-1.566a2,2,0,0,1,2.786-.49L30.1,11.095V2a2,2,0,0,1,2-2h1.912a2,2,0,0,1,2,2v8.9L41.5,7.059a2,2,0,0,1,2.785.49l1.1,1.566a2,2,0,0,1-.491,2.786l-8.876,6.215V32.77l14.1-7.815,1.133-10.78a2,2,0,0,1,2.2-1.78l1.9.2a2,2,0,0,1,1.78,2.2l-.7,6.664,7.033-3.9a2,2,0,0,1,2.719.779L67.1,20.01a2,2,0,0,1-.78,2.719l-7.2,3.991,6.326,3.085a2,2,0,0,1,.922,2.675L65.526,34.2a2,2,0,0,1-2.674.921L52.8,30.219,39.284,37.714l13.579,7.84,9.826-4.582a2,2,0,0,1,2.658.968l.807,1.732a2,2,0,0,1-.967,2.658l-6.075,2.833,6.963,4.02a2,2,0,0,1,.732,2.732l-.956,1.655a2,2,0,0,1-2.732.733l-7.125-4.114.614,7.012a2,2,0,0,1-1.819,2.166l-1.9.167a2,2,0,0,1-2.166-1.818l-.974-11.136L36.011,42.65V58.116l8.879,6.217a2,2,0,0,1,.491,2.785l-1.1,1.565a2,2,0,0,1-2.785.491l-5.489-3.844v8.038a2,2,0,0,1-2,2Z" transform="translate(325.489 155.676)" fill="#fff"/>
        <path id="Union_58" data-name="Union 58" d="M26.479,60.591a2,2,0,0,1-2-2V52.366l-4.1,2.806a2.468,2.468,0,0,1-3.387-.583h0a2.342,2.342,0,0,1,.6-3.309l6.89-4.715V34.412l-9.822,5.321L13.777,47.9a2.419,2.419,0,0,1-2.672,2.115,2.39,2.39,0,0,1-2.165-2.612l.523-4.862L3.611,45.716a2.462,2.462,0,0,1-3.306-.927,2.348,2.348,0,0,1,.948-3.23l5.716-3.1L2.72,36.437A2.352,2.352,0,0,1,1.6,33.26a2.457,2.457,0,0,1,3.251-1.094l7.31,3.484,10-5.416-9.74-5.5L4.8,28.213a2.457,2.457,0,0,1-3.232-1.149A2.354,2.354,0,0,1,2.74,23.906l4.537-2.067-5.8-3.272a2.347,2.347,0,0,1-.89-3.246,2.462,2.462,0,0,1,3.321-.869l5.661,3.194-.412-4.6A2.432,2.432,0,0,1,14,12.629l.709,7.916,9.768,5.511V14.721L17.59,10.007a2.343,2.343,0,0,1-.6-3.309,2.468,2.468,0,0,1,3.387-.583l4.1,2.8V2a2,2,0,0,1,2-2h.862a2,2,0,0,1,2,2V8.762L33.21,6.115A2.468,2.468,0,0,1,36.6,6.7a2.343,2.343,0,0,1-.6,3.309l-6.657,4.555V26.344l11.6-6.282.849-7.9a2.418,2.418,0,0,1,2.672-2.114,2.39,2.39,0,0,1,2.164,2.611l-.494,4.594,5.1-2.761a2.462,2.462,0,0,1,3.306.926,2.348,2.348,0,0,1-.948,3.23L48.35,21.481l4.5,2.143a2.353,2.353,0,0,1,1.12,3.178A2.458,2.458,0,0,1,50.716,27.9l-7.559-3.6L32.034,30.319l11.171,6.3,7.371-3.359a2.454,2.454,0,0,1,3.23,1.148,2.352,2.352,0,0,1-1.175,3.157l-4.285,1.953,5.047,2.847a2.346,2.346,0,0,1,.889,3.246,2.463,2.463,0,0,1-3.321.869L45.78,43.562l.436,4.872a2.392,2.392,0,0,1-2.209,2.574h0a2.417,2.417,0,0,1-2.634-2.16l-.733-8.187-11.3-6.374V46.721L36,51.278a2.341,2.341,0,0,1,.6,3.308,2.467,2.467,0,0,1-3.386.584l-3.872-2.65v6.07a2,2,0,0,1-2,2Z" transform="translate(263.714 209.458)" fill="#fff"/>
        <path id="Union_100" data-name="Union 100" d="M27.669,61.349a2.432,2.432,0,0,0,2.432-2.43v-5.64l3.872,2.649a2.467,2.467,0,0,0,3.386-.582,2.344,2.344,0,0,0-.6-3.31L30.1,47.479V35.046l11.3,6.373.733,8.188a2.432,2.432,0,0,0,4.845-.415l-.436-4.873,5.181,2.923a2.461,2.461,0,0,0,3.321-.87,2.347,2.347,0,0,0-.891-3.245L49.1,40.28l4.286-1.953a2.354,2.354,0,0,0,1.176-3.158,2.455,2.455,0,0,0-3.229-1.149L43.963,37.38l-11.17-6.3,11.124-6.026,7.558,3.6a2.457,2.457,0,0,0,3.251-1.093,2.354,2.354,0,0,0-1.12-3.179l-4.5-2.143L54.345,19.4a2.348,2.348,0,0,0,.948-3.229,2.461,2.461,0,0,0-3.305-.927l-5.1,2.762.494-4.594A2.389,2.389,0,0,0,45.219,10.8a2.415,2.415,0,0,0-2.671,2.114l-.851,7.9L30.1,27.1V15.32l6.656-4.555a2.34,2.34,0,0,0,.6-3.308,2.466,2.466,0,0,0-3.386-.584L30.1,9.52V3.19a2.432,2.432,0,0,0-4.864,0V9.677l-4.1-2.805a2.469,2.469,0,0,0-3.386.584,2.343,2.343,0,0,0,.6,3.31l6.889,4.714V26.814L15.469,21.3l-.709-7.916a2.432,2.432,0,0,0-4.845.415l.412,4.6-5.66-3.194a2.461,2.461,0,0,0-3.321.87,2.345,2.345,0,0,0,.889,3.245l5.8,3.273L3.5,24.664a2.354,2.354,0,0,0-1.176,3.158A2.454,2.454,0,0,0,5.553,28.97L13.177,25.5l9.741,5.5-10,5.416L5.61,32.924a2.457,2.457,0,0,0-3.251,1.093A2.354,2.354,0,0,0,3.479,37.2l4.249,2.025-5.716,3.1a2.347,2.347,0,0,0-.948,3.229,2.461,2.461,0,0,0,3.305.927L10.223,43.3,9.7,48.166a2.39,2.39,0,0,0,2.163,2.612,2.418,2.418,0,0,0,2.672-2.115l.88-8.172,9.822-5.32V47.322l-6.89,4.715a2.342,2.342,0,0,0-.6,3.308l0,0a2.467,2.467,0,0,0,3.386.582l4.1-2.806v5.8a2.431,2.431,0,0,0,2.432,2.43m0,1.758a4.194,4.194,0,0,1-4.19-4.188V56.456l-1.35.924a4.228,4.228,0,0,1-5.71-.878l-.014-.014-.086-.119a4.1,4.1,0,0,1,1.036-5.783l6.124-4.191V38.122L17.064,41.6l-.781,7.254a4.162,4.162,0,0,1-4.166,3.7,4.3,4.3,0,0,1-.433-.022,4.176,4.176,0,0,1-2.841-1.532,4.072,4.072,0,0,1-.892-3.017l.165-1.533L5.207,48.02A4.222,4.222,0,0,1-.466,46.413a4.053,4.053,0,0,1-.376-3.14,4.115,4.115,0,0,1,2.016-2.5l2.678-1.45-1.13-.538A4.125,4.125,0,0,1,.577,36.389a4.06,4.06,0,0,1,.208-3.156A4.162,4.162,0,0,1,4.2,30.939a4.209,4.209,0,0,1-3.46-2.36,4.058,4.058,0,0,1-.154-3.157,4.127,4.127,0,0,1,2.186-2.357l1.394-.635L1.371,20.855A4.113,4.113,0,0,1-.6,18.32a4.057,4.057,0,0,1,.433-3.137,4.222,4.222,0,0,1,5.7-1.506l2.746,1.55-.114-1.269a4.073,4.073,0,0,1,.947-3,4.175,4.175,0,0,1,2.865-1.482c.121-.01.243-.015.363-.015a4.145,4.145,0,0,1,4.171,3.77l.627,7L23.479,23.8v-7.4l-6.124-4.19a4.1,4.1,0,0,1-1.033-5.784A4.228,4.228,0,0,1,22.13,5.42l1.35.923V3.19a4.19,4.19,0,1,1,8.38,0v3l1.118-.765a4.225,4.225,0,0,1,5.808,1.011,4.1,4.1,0,0,1-1.036,5.784l-5.889,4.03v7.9l8.189-4.436.752-6.985a4.155,4.155,0,0,1,4.161-3.7,4.3,4.3,0,0,1,.438.023,4.171,4.171,0,0,1,2.839,1.53,4.069,4.069,0,0,1,.893,3.018L49,14.868,51.15,13.7a4.222,4.222,0,0,1,5.672,1.605,4.06,4.06,0,0,1,.375,3.145,4.114,4.114,0,0,1-2.014,2.5l-2.2,1.19,1.377.656a4.125,4.125,0,0,1,2.145,2.394,4.06,4.06,0,0,1-.208,3.156,4.22,4.22,0,0,1-5.582,1.9l-6.75-3.217-7.542,4.085,7.622,4.3,6.559-2.988a4.218,4.218,0,0,1,5.545,1.992,4.057,4.057,0,0,1,.153,3.156,4.127,4.127,0,0,1-2.186,2.357l-1.142.52,2.037,1.15a4.109,4.109,0,0,1,1.971,2.53,4.059,4.059,0,0,1-.43,3.14,4.222,4.222,0,0,1-5.7,1.507l-2.268-1.279.138,1.541a4.072,4.072,0,0,1-.945,3,4.18,4.18,0,0,1-2.865,1.485c-.122.01-.244.016-.365.016a4.145,4.145,0,0,1-4.172-3.77L39.728,42.5l-7.87-4.44v8.5l5.894,4.033a4.1,4.1,0,0,1,1.036,5.783,4.226,4.226,0,0,1-5.81,1.01l-1.12-.767v2.307A4.194,4.194,0,0,1,27.669,63.107ZM4.877,30.938a4.2,4.2,0,0,1,1.49.4l6.5,3.1,6.415-3.475-6.193-3.494-6.81,3.1A4.2,4.2,0,0,1,4.877,30.938Z" transform="translate(262.958 208.7)" fill="#ccc"/>
        <path id="Union_100-2" data-name="Union 100" d="M33.471,76.128a2.957,2.957,0,0,0,2.956-2.957V66.09l4.705,3.295a2.955,2.955,0,1,0,3.391-4.842l-8.1-5.668V43.409l13.731,7.928.891,10.182a2.956,2.956,0,1,0,5.889-.514l-.529-6.059,6.3,3.635a2.956,2.956,0,0,0,2.957-5.12l-6.135-3.542,5.21-2.429a2.955,2.955,0,1,0-2.5-5.356l-8.96,4.177L39.7,38.472l13.522-7.5,9.187,4.481A2.956,2.956,0,0,0,65,30.144l-5.467-2.667L65.9,23.95a2.955,2.955,0,1,0-2.865-5.169l-6.2,3.435.6-5.715a2.955,2.955,0,1,0-5.878-.617l-1.034,9.831-14.1,7.814V18.873l8.093-5.666a2.955,2.955,0,0,0-3.391-4.842l-4.7,3.292V3.714a2.956,2.956,0,0,0-5.911,0v8.14l-4.984-3.49a2.956,2.956,0,0,0-3.391,4.843l8.375,5.865v14.1L18.64,26.313l-.862-9.846a2.956,2.956,0,0,0-5.889.514l.5,5.723L5.509,18.732a2.956,2.956,0,0,0-2.956,5.12L9.6,27.923,4.089,30.494a2.956,2.956,0,0,0,2.5,5.359l9.265-4.322L27.7,38.368,15.543,45.1,6.656,40.769a2.956,2.956,0,0,0-2.592,5.313L9.232,48.6,2.282,52.455a2.955,2.955,0,1,0,2.865,5.169l7.114-3.944-.635,6.048a2.956,2.956,0,0,0,5.879.619l1.068-10.165,11.941-6.619V58.677l-8.376,5.866a2.956,2.956,0,0,0,3.391,4.843l4.986-3.491v7.276a2.956,2.956,0,0,0,2.956,2.957m0,1.758a4.72,4.72,0,0,1-4.714-4.715v-3.9l-2.219,1.554A4.714,4.714,0,1,1,21.131,63.1l7.626-5.34V46.547l-8.53,4.728-.972,9.255a4.7,4.7,0,0,1-4.683,4.22,4.768,4.768,0,0,1-.5-.026,4.719,4.719,0,0,1-4.2-5.181l.282-2.689L6,59.162a4.713,4.713,0,1,1-4.569-8.245l4-2.215-2.133-1.04a4.714,4.714,0,1,1,4.133-8.473l8.065,3.934,8.634-4.786-8.359-4.826L7.331,37.446a4.675,4.675,0,0,1-1.99.442,4.733,4.733,0,0,1-4.275-2.723A4.715,4.715,0,0,1,3.346,28.9L5.8,27.756,1.674,25.374a4.714,4.714,0,0,1,4.713-8.165l3.958,2.285-.206-2.359a4.713,4.713,0,0,1,4.285-5.105c.137-.012.277-.018.415-.018a4.713,4.713,0,0,1,4.692,4.3l.782,8.934,8.446,4.876V19.986l-7.625-5.34A4.714,4.714,0,1,1,26.54,6.924l2.217,1.553V3.714a4.714,4.714,0,0,1,9.427,0V8.281L40.12,6.925a4.713,4.713,0,0,1,5.408,7.721l-7.344,5.142V30.544L48.87,24.621l.938-8.921a4.7,4.7,0,0,1,4.684-4.222,4.767,4.767,0,0,1,.5.026,4.719,4.719,0,0,1,4.194,5.181l-.247,2.356,3.243-1.8a4.713,4.713,0,1,1,4.569,8.245l-3.41,1.89,2.432,1.186a4.714,4.714,0,1,1-4.134,8.473l-8.364-4.079-10,5.545,10.1,5.829,8.13-3.791a4.677,4.677,0,0,1,1.991-.442,4.713,4.713,0,0,1,1.994,8.985l-2.149,1,3.21,1.854A4.714,4.714,0,1,1,61.826,60.1l-3.372-1.947.235,2.7A4.713,4.713,0,0,1,54.4,65.959c-.137.012-.277.018-.414.018a4.715,4.715,0,0,1-4.693-4.3L48.486,52.4l-10.3-5.948V57.959L45.531,63.1a4.713,4.713,0,1,1-5.408,7.721l-1.939-1.357v3.7A4.72,4.72,0,0,1,33.471,77.886Z" transform="translate(325.077 154.918)" fill="#ccc"/>
      </g>
    </g>
  </g>
</svg>
