<svg xmlns="http://www.w3.org/2000/svg" xmlns:xlink="http://www.w3.org/1999/xlink" width="450" height="450" viewBox="0 0 450 450">
  <defs>
    <clipPath id="clip-_19">
      <rect width="450" height="450"/>
    </clipPath>
  </defs>
  <g id="_19" data-name="19" clip-path="url(#clip-_19)">
    <rect width="450" height="450" fill="rgba(255,255,255,0)"/>
    <g id="Group_35727" data-name="Group 35727" transform="translate(-0.354)">
      <rect id="Rectangle_4" data-name="Rectangle 4" width="450" height="450" transform="translate(0.354 0)" fill="red" opacity="0"/>
      <g id="Group_352" data-name="Group 352" transform="translate(26.59 91.074)">
        <g id="Group_351" data-name="Group 351" transform="translate(144.888 0)">
          <g id="Group_346" data-name="Group 346" transform="translate(8.471 8.777)">
            <path id="Subtraction_58" data-name="Subtraction 58" d="M119.242,250.207a126.534,126.534,0,0,1-17.554-1.233A124.391,124.391,0,0,1,35.435,218.09,125.5,125.5,0,0,1,0,163.293a137.655,137.655,0,0,0,20.923-5.05,66.188,66.188,0,0,0,17.428-8.575c11-7.829,17.213-18.883,19-33.8A50.291,50.291,0,0,0,55.2,93.641,51.722,51.722,0,0,0,46.48,77.859,55.9,55.9,0,0,0,32.548,65.326a68.682,68.682,0,0,0-6.479-23.814A125.569,125.569,0,0,1,80.637,6.055,123.912,123.912,0,0,1,118.9,0c2.78,0,5.6.094,8.393.28A103.236,103.236,0,0,0,89.009,31.6,102.623,102.623,0,0,0,78.951,138.141,103,103,0,0,0,118.5,181.283a102.024,102.024,0,0,0,38.454,13.556,104.3,104.3,0,0,0,14.455,1.017A102.175,102.175,0,0,0,217.1,185.033a103.416,103.416,0,0,0,16.945-10.653,124.919,124.919,0,0,1-114.806,75.827Z" transform="translate(0 0)" fill="#dde0d7"/>
            <path id="Subtraction_57" data-name="Subtraction 57" d="M105.229,243.027A126.7,126.7,0,0,1,87.651,241.8c-8.853-1.244-15.389-3.874-20.569-8.278-4.755-4.042-8.054-9.233-11.874-15.244l-.01-.015a150.983,150.983,0,0,0-10.037-14.417,101.518,101.518,0,0,0-16.369-16.115,123.018,123.018,0,0,1-18.308-17.287A62.693,62.693,0,0,1,0,153.273a91.269,91.269,0,0,0,15.263-5.266,16.632,16.632,0,0,0,1.948,10.311c2.021,3.634,5.568,7.025,10.844,10.368,9.846,6.237,27.677,11.7,44.92,16.975l.037.011c13.048,4,25.372,7.769,34.621,11.876,4.974,2.208,8.559,4.3,10.96,6.386,2.688,2.338,3.834,4.62,3.5,6.974-1.027,7.295.008,12.956,3.074,16.827,2.544,3.213,6.5,5.216,11.756,5.955a35.472,35.472,0,0,0,4.906.323,58.758,58.758,0,0,0,13.288-1.691c.671-.158,1.38-.335,2.106-.528-1.551.6-3.338,1.311-5.31,2.118a122.167,122.167,0,0,1-22.855,6.821A124.91,124.91,0,0,1,105.229,243.027Zm52.028-11.24h0v0a43.885,43.885,0,0,1,6.36-2.192h.018c.013,0,.021.006.021.013a31.7,31.7,0,0,1-6.4,2.181ZM31.9,69.95v0a54.848,54.848,0,0,0-12.773-11.16A56.658,56.658,0,0,0,17.4,48.37c3.567-4.057,7.408-9.362,11.475-14.978C38.35,20.308,49.086,5.478,60.234,1.137A13.541,13.541,0,0,1,64.269,0a1.738,1.738,0,0,1,.242.015.526.526,0,0,1,.481.315c.348,1.027-3.009,4.422-6.9,8.353l-.016.017C52.087,14.759,44.63,22.3,45.608,25.978a2.831,2.831,0,0,0,2.239,1.881c4.212.592,6.745,1.905,7.745,4.016,1.168,2.468.252,6.019-2.883,11.173C49.9,47.667,45.383,53.2,40.6,59.051l-.014.017c-2.863,3.5-5.824,7.125-8.688,10.88Z" transform="translate(14.039 7.178)" fill="#d4d7ce"/>
            <path id="Subtraction_59" data-name="Subtraction 59" d="M154.59,204.57a5.047,5.047,0,0,1-.7-.051c-3.65-.513-9.058-4.892-14.359-9.547A102.536,102.536,0,0,0,190.8,174.145c-.062.148-.124.293-.187.44l-.044.1-.093.215-.091.212c-3.818,8.818-11.161,13.284-18.936,18.013l-.015.009c-4.938,3-10.044,6.112-14.437,10.49A3.278,3.278,0,0,1,154.59,204.57ZM47.849,157.076l0,0c-3.142-1.287-6.249-2.475-9.254-3.623-10.461-4-20.342-7.773-26.845-14.02a27.247,27.247,0,0,1-3.75-4.443,52.267,52.267,0,0,0,5.837-19.1,49.808,49.808,0,0,0-2.37-22.735A51.752,51.752,0,0,0,2.325,77.279c-.194-.863-.394-1.723-.57-2.481-3.062-13.219-4.6-19.855,17.3-31C26.173,40.182,33.77,33,41.813,25.39l.013-.013c6.7-6.333,13.622-12.882,20.693-17.746C69.986,2.5,76.584,0,82.69,0c.454,0,.911.014,1.36.042A105.247,105.247,0,0,0,62.928,13.5,103.562,103.562,0,0,0,45.675,31.529,101.977,101.977,0,0,0,33.181,53.452,102.708,102.708,0,0,0,47.846,157.071Z" transform="translate(43.252 0.238)" fill="#d4d7ce"/>
          </g>
          <path id="Subtraction_60" data-name="Subtraction 60" d="M128,267.762a135.347,135.347,0,0,1-18.78-1.319A133.169,133.169,0,0,1,38.31,233.384,134.232,134.232,0,0,1,0,173.494c1.128-.143,2.267-.3,3.388-.46,1.87-.274,3.688-.56,5.4-.85a125.436,125.436,0,0,0,54.825,69.06,124.217,124.217,0,0,0,46.827,16.507A126.541,126.541,0,0,0,128,258.984,125.186,125.186,0,0,0,242.8,183.157a102.794,102.794,0,0,1-35.769,17.86,101.853,101.853,0,0,1-26.866,3.617,104.22,104.22,0,0,1-14.455-1.018,102.166,102.166,0,0,1-54.407-25.363,103.017,103.017,0,0,1-30.548-49.931A102.657,102.657,0,0,1,115.02,22.376,103.292,103.292,0,0,1,136.049,9.057c-2.773-.185-5.6-.28-8.392-.28a123.9,123.9,0,0,0-38.266,6.055A125.716,125.716,0,0,0,34.649,50.482a67.182,67.182,0,0,0-4.583-7.991A134.371,134.371,0,0,1,86.684,6.483,132.669,132.669,0,0,1,127.654,0c2.974,0,6,.1,8.98.3a8.778,8.778,0,0,1,3.182,16.686,94.43,94.43,0,0,0-35.028,28.655A93.347,93.347,0,0,0,93.323,65.732a94.076,94.076,0,0,0,38.448,116.8,93.284,93.284,0,0,0,35.163,12.393,95.4,95.4,0,0,0,13.227.931,93.363,93.363,0,0,0,41.767-9.894,94.569,94.569,0,0,0,15.5-9.748,8.777,8.777,0,0,1,13.439,10.4A133.7,133.7,0,0,1,128,267.762Z" transform="translate(0)" fill="#ccc"/>
        </g>
        <g id="Group_311" data-name="Group 311" transform="translate(0 34.224)">
          <g id="Group_46" data-name="Group 46">
            <path id="Path_63" data-name="Path 63" d="M-23065.693-23215.422c-27.031,4.031-83.268,4.764-112.219-8.021s-27.924-40.4-27.924-40.4.09-36.5,43.75-36.146c0,0,16.533-42.766,70.521-38.559s57.027,48.877,57.027,48.877,24.123,10.393,21.2,36.438S-23038.656-23219.465-23065.693-23215.422Z" transform="translate(23205.84 23338.836)" fill="#ccc"/>
            <path id="Path_60" data-name="Path 60" d="M-23087.947-23233.08c-22.82,3.412-75.187,3.734-103.041-7.791s-22.99-35.949-22.99-35.949,3.754-27.08,41.109-22.463c0,0,11.756-44.551,64.043-40.373s50.193,47.281,50.193,47.281,23.969,6.27,21.146,29.674C-23040.33-23239.291-23065.131-23236.479-23087.947-23233.08Z" transform="translate(23222.02 23348.264)" fill="#fff"/>
            <path id="Union_9" data-name="Union 9" d="M0,62.642s30.687,3.645,43-13.586c0,0,20.289,8.747,39.9,7.648C77.988,51.912,74.535,45.267,74.09,36.2,72.51,3.842,109.01-2.319,115.887.672s6.453,13.736,1.13,16.111-25.166-.212-24.841,18.139a18.343,18.343,0,0,0,.2,2.455c4.242-7.3,13.495-12.37,24.232-12.37,14.751,0,26.7,9.562,26.7,21.356,0,10.109-8.793,18.578-20.6,20.786a.363.363,0,0,1-.035.012c-6.02,1.324-12.914,2.278-19.641,3.291a246.2,246.2,0,0,1-34,2.069C45.385,72.521,17.728,69.978,0,62.642Z" transform="translate(31.04 44.745)" fill="#e2e2e2"/>
          </g>
        </g>
      </g>
    </g>
  </g>
</svg>
