<svg xmlns="http://www.w3.org/2000/svg" xmlns:xlink="http://www.w3.org/1999/xlink" width="450" height="450" viewBox="0 0 450 450">
  <defs>
    <clipPath id="clip-_1">
      <rect width="450" height="450"/>
    </clipPath>
  </defs>
  <g id="_1" data-name="1" clip-path="url(#clip-_1)">
    <rect width="450" height="450" fill="rgba(255,255,255,0)"/>
    <g id="Group_35761" data-name="Group 35761">
      <rect id="Rectangle_4" data-name="Rectangle 4" width="450" height="450" fill="red" opacity="0"/>
      <g id="Group_34939" data-name="Group 34939" transform="translate(40.542 41.375)">
        <path id="Path_5" data-name="Path 5" d="M0,52.509S7.369-.4,17.676,0s17.91,51.545,17.91,51.545-9.769-.979-17.91-1.006A100.583,100.583,0,0,0,0,52.509Z" transform="translate(328.143 299.722) rotate(135)" fill="#f5bc4b"/>
        <path id="Path_1" data-name="Path 1" d="M-23196.7-23702.451s7.367-52.91,17.678-52.506,17.91,51.541,17.91,51.541-9.766-.979-17.91-1A100.147,100.147,0,0,0-23196.7-23702.451Z" transform="translate(23361.49 23754.959)" fill="#f5bc4b"/>
        <path id="Path_2" data-name="Path 2" d="M-23196.7-23754.967s7.367,52.9,17.678,52.506,17.945-52.1,17.945-52.1-9.678.994-17.82,1.021A138.738,138.738,0,0,1-23196.7-23754.967Z" transform="translate(23363.389 24069.756)" fill="#f5bc4b"/>
        <path id="Path_3" data-name="Path 3" d="M0,0S7.367,52.9,17.677,52.506,35.588.96,35.588.96s-9.77.978-17.911,1.008A100.746,100.746,0,0,1,0,0Z" transform="translate(52.508 163.22) rotate(90)" fill="#f5bc4b"/>
        <path id="Path_4" data-name="Path 4" d="M0,52.509S7.369-.4,17.676,0s17.91,51.545,17.91,51.545-9.769-.979-17.91-1.006A100.583,100.583,0,0,0,0,52.509Z" transform="translate(368.962 163.22) rotate(90)" fill="#f5bc4b"/>
        <path id="Path_6" data-name="Path 6" d="M0,0S7.369,52.9,17.676,52.507,35.589.5,35.589.5A149.216,149.216,0,0,1,17.676,1.967,100.583,100.583,0,0,1,0,0Z" transform="translate(103.12 78.214) rotate(135)" fill="#f5bc4b"/>
        <path id="Path_7" data-name="Path 7" d="M0,52.509S7.369-.4,17.676,0s17.91,51.545,17.91,51.545-9.769-.979-17.91-1.006A100.583,100.583,0,0,0,0,52.509Z" transform="translate(65.982 324.884) rotate(-135)" fill="#f5bc4b"/>
        <path id="Path_8" data-name="Path 8" d="M0,.643s7.369,52.9,17.676,52.507S35.882,0,35.882,0,25.756,1.085,17.615,1.112,0,.643,0,.643Z" transform="translate(286.754 99.889) rotate(-135)" fill="#f5bc4b"/>
        <path id="Exclusion_2" data-name="Exclusion 2" d="M137,274a138.086,138.086,0,0,1-27.611-2.783A136.279,136.279,0,0,1,60.4,250.6a137.4,137.4,0,0,1-49.635-60.276A136.312,136.312,0,0,1,2.783,164.61a138.331,138.331,0,0,1,0-55.219A136.257,136.257,0,0,1,23.4,60.4,137.391,137.391,0,0,1,83.673,10.767a136.138,136.138,0,0,1,25.716-7.983,138.28,138.28,0,0,1,55.22,0A136.255,136.255,0,0,1,213.6,23.4a137.4,137.4,0,0,1,49.636,60.277,136.274,136.274,0,0,1,7.983,25.716,138.322,138.322,0,0,1,0,55.219A136.237,136.237,0,0,1,250.6,213.6a137.4,137.4,0,0,1-60.276,49.636,136.355,136.355,0,0,1-25.716,7.984A138.081,138.081,0,0,1,137,274Zm0-263.459a125.884,125.884,0,0,0-70.706,21.6A126.828,126.828,0,0,0,20.475,87.776a126.3,126.3,0,0,0,11.66,119.932,126.823,126.823,0,0,0,55.64,45.817A126.3,126.3,0,0,0,207.7,241.866a126.821,126.821,0,0,0,45.817-55.64A126.292,126.292,0,0,0,241.862,66.3a126.827,126.827,0,0,0-55.639-45.816A125.662,125.662,0,0,0,137,10.541Z" transform="translate(48.458 45.625)" fill="#f7c751"/>
        <circle id="Ellipse_1" data-name="Ellipse 1" cx="104" cy="104" r="104" transform="translate(82.458 79.625)" fill="#f5bc4b"/>
        <circle id="Ellipse_3" data-name="Ellipse 3" cx="63.288" cy="63.288" r="63.288" transform="translate(103.401 99.932)" fill="#f7c751"/>
        <circle id="Ellipse_4" data-name="Ellipse 4" cx="28.128" cy="28.128" r="28.128" transform="translate(122.073 119.483)" fill="#ffedc1"/>
      </g>
    </g>
  </g>
</svg>