<svg xmlns="http://www.w3.org/2000/svg" heigth="450" whidth="450" viewBox="0 0 32 32" fill="#fff"><path d="M14.078 12.142h-11.082c-0.217 0-0.392-0.176-0.392-0.393 0-0.216 0.175-0.392 0.392-0.392h11.082c1.102 0 1.998-0.896 1.998-1.998s-0.896-1.997-1.998-1.997c-0.806 0-1.528 0.479-1.841 1.219-0.085 0.2-0.315 0.292-0.515 0.208-0.199-0.084-0.292-0.314-0.208-0.514 0.436-1.031 1.443-1.698 2.564-1.698 1.534 0 2.782 1.248 2.782 2.781 0 1.536-1.248 2.784-2.782 2.784zM25.906 16.763h-25.233c-0.372 0-0.673-0.302-0.673-0.674s0.301-0.673 0.673-0.673h25.233c2.617 0 4.748-2.13 4.748-4.75 0-2.617-2.131-4.748-4.748-4.748-0.372 0-0.674-0.301-0.674-0.673s0.302-0.673 0.674-0.673c3.36 0 6.094 2.734 6.094 6.094 0 3.362-2.733 6.097-6.094 6.097zM20.524 10.694c-0.026 0-0.054-0.001-0.080-0.005-0.37-0.044-0.633-0.378-0.589-0.748 0.363-3.061 2.964-5.369 6.051-5.369 0.372 0 0.673 0.301 0.673 0.673s-0.301 0.673-0.673 0.673c-2.404 0-4.432 1.798-4.714 4.181-0.041 0.343-0.331 0.595-0.668 0.595zM18.751 27.64c-1.656 0-3.095-1.063-3.579-2.645-0.079-0.26 0.066-0.535 0.327-0.614s0.535 0.066 0.614 0.327c0.356 1.165 1.416 1.948 2.638 1.948 1.521 0 2.759-1.237 2.759-2.759 0-1.521-1.238-2.756-2.759-2.756h-15.502c-0.271 0-0.492-0.219-0.492-0.489s0.22-0.489 0.492-0.489h15.502c2.062 0 3.741 1.672 3.741 3.734 0 2.064-1.679 3.743-3.741 3.743z"></path></svg>